<svg id="Layer_1" xmlns="http://www.w3.org/2000/svg" viewBox="0 0 1091 655">
  <style>
    .st0{opacity:0.25;} .st1{fill:none;stroke:#FF7BAC;stroke-width:2;stroke-miterlimit:10;} .st2{opacity:0.5;} .st3{fill:#FF7BAC;} .st4{fill:#0071BC;} .st5{fill:#808080;} .st6{fill:#C1272D;} .st7{opacity:0.75;} .st8{fill:#FFFFFF;} .st9{fill:none;stroke:#C1272D;stroke-width:4;stroke-miterlimit:10;} .st10{fill:none;stroke:#0071BC;stroke-width:2;stroke-miterlimit:10;}
  </style>
  <path class="st0 st1" d="M1039.6 93.5L58.8 94m981.2 81.3H59.2m980.8-40.9H59.2M1040 257.2H59.2m980.8-40.9L26 216m1014 123H26m1014-40.9H59.2M1040 420.9H59.2M1040 380H59.2m980.8 81.8L26 462m1014 122.6H59.2m980.8-40.9L26 544m1014 81.5H59.2"/>
  <path d="M79.9 120.1c.8.5 2 .9 3.3.9 1.9 0 3-1 3-2.4 0-1.3-.8-2.1-2.7-2.8-2.3-.8-3.7-2-3.7-4 0-2.2 1.8-3.8 4.6-3.8 1.4 0 2.5.3 3.1.7l-.5 1.5c-.5-.3-1.4-.7-2.7-.7-1.9 0-2.7 1.2-2.7 2.1 0 1.3.9 2 2.8 2.7 2.4.9 3.6 2.1 3.6 4.2 0 2.2-1.6 4.1-5 4.1-1.4 0-2.9-.4-3.6-.9l.5-1.6zm17.9-4.4h-5.5v5.1h6.1v1.5h-8v-14.2H98v1.5h-5.8v4.5h5.5v1.6zm6-6h-4.3v-1.6H110v1.6h-4.3v12.6h-1.8v-12.6zm11.3 0h-4.3v-1.6h10.5v1.6H117v12.6h-1.8v-12.6zm9.5-1.6v14.2h-1.8v-14.2h1.8zm3.2 14.2v-14.2h2l4.5 7.2c1 1.7 1.9 3.1 2.5 4.6-.2-1.9-.2-3.6-.2-5.8v-5.9h1.7v14.2h-1.8l-4.5-7.2c-1-1.6-1.9-3.2-2.6-4.7h-.1c.1 1.8.1 3.5.1 5.8v6h-1.6zm24.6-.6c-.8.3-2.4.8-4.3.8-2.1 0-3.9-.5-5.3-1.9-1.2-1.2-2-3.1-2-5.3 0-4.2 2.9-7.3 7.7-7.3 1.6 0 2.9.4 3.5.7l-.4 1.5c-.8-.3-1.7-.6-3.1-.6-3.4 0-5.7 2.1-5.7 5.7s2.2 5.7 5.5 5.7c1.2 0 2-.2 2.4-.4v-4.2h-2.9v-1.5h4.7v6.8zm2.6-1.6c.8.5 2 .9 3.3.9 1.9 0 3-1 3-2.4 0-1.3-.8-2.1-2.7-2.8-2.3-.8-3.7-2-3.7-4 0-2.2 1.8-3.8 4.6-3.8 1.4 0 2.5.3 3.1.7l-.5 1.5c-.5-.3-1.4-.7-2.7-.7-1.9 0-2.7 1.2-2.7 2.1 0 1.3.9 2 2.8 2.7 2.4.9 3.6 2.1 3.6 4.2 0 2.2-1.6 4.1-5 4.1-1.4 0-2.9-.4-3.6-.9l.5-1.6z"/>
  <path class="st2 st3" d="M42.1 174.3c.3.5.5 1.5.5 2.8 0 3-1.9 5.3-5.5 5.3-3.4 0-5.7-2.3-5.7-5.6 0-1.3.3-2.2.5-2.6l1.1.3c-.3.5-.4 1.3-.4 2.2 0 2.5 1.6 4.2 4.4 4.2 2.6 0 4.3-1.5 4.3-4.1 0-.8-.2-1.7-.4-2.3l1.2-.2zm-5.2-10.6c3.7 0 5.7 2.3 5.7 5 0 2.8-2.2 4.9-5.5 4.9-3.4 0-5.7-2.1-5.7-5 .1-3 2.3-4.9 5.5-4.9zm.2 8.4c2.3 0 4.4-1.2 4.4-3.4s-2-3.5-4.5-3.5c-2.1 0-4.4 1.1-4.4 3.4s2.1 3.5 4.5 3.5zm5.3-10.2H31.6v-1.5l5.5-3.5c1.3-.8 2.4-1.4 3.5-1.9-1.4.1-2.8.2-4.4.2h-4.5v-1.3h10.8v1.4l-5.5 3.4c-1.2.8-2.4 1.5-3.6 2 1.4-.1 2.7-.1 4.4-.1h4.6v1.3zm-10.8-10.5v-5.8h1.2v4.4h3.6v-4.1h1.2v4.1h4.9v1.4H31.6zm0-9.2h10.8v1.4H31.6v-1.4zm10.3-10.7c.2.6.6 1.9.6 3.3 0 1.6-.4 3-1.4 4-.9.9-2.3 1.5-4 1.5-3.2 0-5.6-2.2-5.6-5.8 0-1.2.3-2.2.5-2.7l1.1.3c-.3.6-.5 1.3-.5 2.4 0 2.6 1.6 4.3 4.3 4.3 2.7 0 4.4-1.6 4.4-4.2 0-.9-.1-1.5-.3-1.9h-3.2v2.2h-1.1v-3.6h5.2zM31.8 291.8c-.1-.6-.2-1.6-.2-2.5 0-1.4.2-2.3.8-3 .4-.6 1.1-.9 1.9-.9 1 0 2 .7 2.4 1.8.3-1 1.1-2.2 2.7-2.2.9 0 1.6.4 2.2.9.7.8 1 2 1 3.7 0 1-.1 1.7-.1 2.2H31.8zm4.4-1.4v-1.3c0-1.5-.8-2.3-1.8-2.3-1.3 0-1.8 1-1.8 2.4 0 .6 0 1 .1 1.2h3.5zm5.2 0c0-.3.1-.7.1-1.2 0-1.4-.5-2.8-2.1-2.8-1.5 0-2.1 1.3-2.1 2.8v1.2h4.1zm-2.4-9.1l3.4 1.1v1.4l-10.8-3.7v-1.7l10.8-3.7v1.5l-3.4 1.2v3.9zm-1.1-3.5l-3.1 1.1-2 .6c.6.2 1.3.3 2 .5l3.1 1.1v-3.3zm2.8-4.3c.4-.6.7-1.5.7-2.5 0-1.4-.8-2.3-1.8-2.3s-1.6.6-2.1 2c-.6 1.8-1.5 2.8-3.1 2.8-1.7 0-2.9-1.4-2.9-3.5 0-1.1.3-1.9.5-2.4l1.1.4c-.2.4-.5 1.1-.5 2 0 1.5.9 2 1.6 2 1 0 1.5-.7 2.1-2.1.7-1.8 1.6-2.8 3.2-2.8 1.7 0 3.1 1.2 3.1 3.8 0 1-.3 2.2-.7 2.8l-1.2-.2zm-3.3-13.7v4.2h3.9v-4.7h1.2v6.1H31.6v-5.8h1.2v4.4h3.4v-4.2h1.2zM39 432l3.4 1.1v1.4l-10.8-3.7v-1.7l10.8-3.7v1.5l-3.4 1.2v3.9zm-1.1-3.5l-3.1 1.1-2 .6c.6.2 1.3.3 2 .5l3.1 1.1v-3.3zm-6.1-4.5c-.1-.6-.2-1.6-.2-2.5 0-1.4.2-2.3.8-3 .4-.6 1.1-.9 1.9-.9 1 0 2 .7 2.4 1.8.3-1 1.1-2.2 2.7-2.2.9 0 1.6.4 2.2.9.7.8 1 2 1 3.7 0 1-.1 1.7-.1 2.2H31.8zm4.4-1.4v-1.3c0-1.5-.8-2.3-1.8-2.3-1.3 0-1.8 1-1.8 2.4 0 .6 0 1 .1 1.2h3.5zm5.2 0c0-.3.1-.7.1-1.2 0-1.4-.5-2.8-2.1-2.8-1.5 0-2.1 1.3-2.1 2.8v1.2h4.1zm-.7-7.1c.4-.6.7-1.5.7-2.5 0-1.4-.8-2.3-1.8-2.3s-1.6.6-2.1 2c-.6 1.8-1.5 2.8-3.1 2.8-1.7 0-2.9-1.4-2.9-3.5 0-1.1.3-1.9.5-2.4l1.1.4c-.2.4-.5 1.1-.5 2 0 1.5.9 2 1.6 2 1 0 1.5-.7 2.1-2.1.7-1.8 1.6-2.8 3.2-2.8 1.7 0 3.1 1.2 3.1 3.8 0 1-.3 2.2-.7 2.8l-1.2-.2zm-7.9-10.1v3.3h-1.2v-8h1.2v3.3h9.6v1.4h-9.6zm-1-5.9c-.1-.7-.2-1.7-.2-2.7 0-1.5.3-2.4.9-3.1.5-.5 1.2-.8 2-.8 1.4 0 2.4.9 2.8 2 .3-.8 1.1-1.3 2.2-1.6 1.5-.4 2.5-.6 3-.8v1.4c-.3.2-1.2.4-2.6.7-1.5.3-2 .9-2.1 2.2v1.3h4.7v1.4H31.8zm4.9-1.4v-1.4c0-1.5-.8-2.4-2-2.4-1.4 0-2 1-2 2.5 0 .7.1 1.2.1 1.4h3.9zM39 389l3.4 1.1v1.4l-10.8-3.7v-1.7l10.8-3.7v1.5l-3.4 1.2v3.9zm-1.1-3.5l-3.1 1.1-2 .6c.6.2 1.3.3 2 .5l3.1 1.1v-3.3zm4.2-11.8c.3.5.5 1.5.5 2.8 0 3-1.9 5.3-5.5 5.3-3.4 0-5.7-2.3-5.7-5.6 0-1.3.3-2.2.5-2.6l1.1.3c-.3.5-.4 1.3-.4 2.2 0 2.5 1.6 4.2 4.4 4.2 2.6 0 4.3-1.5 4.3-4.1 0-.8-.2-1.7-.4-2.3l1.2-.2zm-9.3-4.3v3.3h-1.2v-8h1.2v3.3h9.6v1.4h-9.6zm9.3 157.1c.3.5.5 1.5.5 2.8 0 3-1.9 5.3-5.5 5.3-3.4 0-5.7-2.3-5.7-5.6 0-1.3.3-2.2.5-2.6l1.1.3c-.3.5-.4 1.3-.4 2.2 0 2.5 1.6 4.2 4.4 4.2 2.6 0 4.3-1.5 4.3-4.1 0-.8-.2-1.7-.4-2.3l1.2-.2zm-5.2-10.6c3.7 0 5.7 2.3 5.7 5 0 2.8-2.2 4.8-5.5 4.8-3.4 0-5.7-2.1-5.7-5 .1-2.9 2.3-4.8 5.5-4.8zm.2 8.3c2.3 0 4.4-1.2 4.4-3.4s-2-3.5-4.5-3.5c-2.1 0-4.4 1.1-4.4 3.4 0 2.4 2.1 3.5 4.5 3.5zm5.3-10.1H31.6v-1.5l5.5-3.5c1.3-.8 2.4-1.4 3.5-1.9-1.4.1-2.8.2-4.4.2h-4.5V506h10.8v1.4l-5.5 3.4c-1.2.8-2.4 1.5-3.6 2 1.4-.1 2.7-.1 4.4-.1h4.6v1.4zm-9.6-12.6v3.3h-1.2v-8h1.2v3.3h9.6v1.4h-9.6zm4.6-11.5v4.2h3.9v-4.7h1.2v6.1H31.6v-5.8h1.2v4.4h3.4V490h1.2zm5-2.3H31.6v-1.5l5.5-3.5c1.3-.8 2.4-1.4 3.5-1.9-1.4.1-2.8.2-4.4.2h-4.5v-1.3h10.8v1.4l-5.5 3.4c-1.2.8-2.4 1.5-3.6 2 1.4-.1 2.7-.1 4.4-.1h4.6v1.3zm-9.6-12.6v3.3h-1.2v-8h1.2v3.3h9.6v1.4h-9.6zm4.1 137c3.7 0 5.7 2.3 5.7 5 0 2.8-2.2 4.8-5.5 4.8-3.4 0-5.7-2.1-5.7-5 .1-2.9 2.3-4.8 5.5-4.8zm.2 8.4c2.3 0 4.4-1.2 4.4-3.4s-2-3.5-4.5-3.5c-2.1 0-4.4 1.1-4.4 3.4s2.1 3.5 4.5 3.5zm5.3-12.6l-10.8 3.5V610l5.3-1.7c1.5-.5 2.8-.9 4-1.2-1.2-.3-2.6-.8-4-1.2l-5.3-1.8v-1.5l10.8 3.9v1.4zm-5-12.1v4.2h3.9v-4.7h1.2v6.1H31.6v-5.8h1.2v4.4h3.4v-4.2h1.2zm-5.6-2.3c-.1-.7-.2-1.7-.2-2.7 0-1.5.3-2.4.9-3.1.5-.5 1.2-.8 2-.8 1.4 0 2.4.9 2.8 2 .3-.8 1.1-1.3 2.2-1.6 1.5-.4 2.5-.6 3-.8v1.4c-.3.2-1.2.4-2.6.7-1.5.3-2 .9-2.1 2.2v1.3h4.7v1.4H31.8zm4.9-1.4v-1.4c0-1.5-.8-2.4-2-2.4-1.4 0-2 1-2 2.5 0 .7.1 1.2.1 1.4h3.9zm-4.9-7.2c-.1-.7-.2-1.7-.2-2.7 0-1.5.3-2.4.9-3.1.5-.5 1.2-.8 2-.8 1.4 0 2.4.9 2.8 2 .3-.8 1.1-1.3 2.2-1.6 1.5-.4 2.5-.6 3-.8v1.4c-.3.2-1.2.4-2.6.7-1.5.3-2 .9-2.1 2.2v1.3h4.7v1.4H31.8zm4.9-1.4v-1.4c0-1.5-.8-2.4-2-2.4-1.4 0-2 1-2 2.5 0 .7.1 1.2.1 1.4h3.9zm-5.1-8.6h10.8v1.4H31.6v-1.4zm.2-2.4c-.1-.8-.2-1.9-.2-3 0-2 .5-3.4 1.3-4.4.9-1 2.1-1.5 3.9-1.5 1.8 0 3.2.5 4.2 1.6 1 1 1.6 2.7 1.6 4.8 0 1 0 1.8-.1 2.5H31.8zm9.5-1.4c.1-.4.1-.9.1-1.4 0-3-1.7-4.6-4.6-4.6-2.5 0-4.2 1.4-4.2 4.4 0 .7.1 1.3.1 1.6h8.6zm-3.9-14.9v4.2h3.9v-4.7h1.2v6.1H31.6V556h1.2v4.4h3.4v-4.2h1.2z"/>
  <path d="M80.1 149h7.6v1.5H82v4.7h5.4v1.5H82v6.4h-1.8V149zm22.3 6.9c0 4.9-3 7.5-6.6 7.5-3.7 0-6.4-2.9-6.4-7.2 0-4.5 2.8-7.4 6.6-7.4 3.9-.1 6.4 2.9 6.4 7.1zm-10.9.2c0 3 1.6 5.7 4.5 5.7s4.5-2.7 4.5-5.9c0-2.8-1.5-5.8-4.5-5.8-3 .1-4.5 2.9-4.5 6zm15.1-7.1v8.4c0 3.2 1.4 4.5 3.3 4.5 2.1 0 3.4-1.4 3.4-4.5V149h1.8v8.3c0 4.3-2.3 6.1-5.4 6.1-2.9 0-5.1-1.7-5.1-6V149h2zm11.8 14.1V149h2l4.5 7.2c1 1.7 1.9 3.1 2.5 4.6-.2-1.9-.2-3.6-.2-5.8v-6h1.7v14.2h-1.8l-4.5-7.2c-1-1.6-1.9-3.2-2.6-4.7h-.1c.1 1.8.1 3.5.1 5.8v6h-1.6zm13.8-13.9c1.1-.2 2.4-.3 3.9-.3 2.6 0 4.5.6 5.7 1.8 1.3 1.2 2 2.8 2 5.1s-.7 4.2-2 5.5c-1.3 1.3-3.5 2-6.3 2-1.3 0-2.4-.1-3.3-.2v-13.9zm1.9 12.5c.5.1 1.1.1 1.8.1 3.9 0 6-2.2 6-6 0-3.3-1.9-5.5-5.7-5.5-.9 0-1.7.1-2.1.2v11.2zm14.1-3l-1.5 4.5h-1.9l4.8-14.2h2.2l4.8 14.2h-2l-1.5-4.5h-4.9zm4.6-1.4l-1.4-4.1c-.3-.9-.5-1.8-.7-2.6-.2.8-.4 1.7-.7 2.6l-1.4 4.1h4.2zm7-6.8h-4.3V149H166v1.6h-4.3v12.6h-1.8v-12.7zm9.6-1.5v14.2h-1.8V149h1.8zm15.3 6.9c0 4.9-3 7.5-6.6 7.5-3.7 0-6.4-2.9-6.4-7.2 0-4.5 2.8-7.4 6.6-7.4 3.9-.1 6.4 2.9 6.4 7.1zm-11 .2c0 3 1.6 5.7 4.5 5.7s4.5-2.7 4.5-5.9c0-2.8-1.5-5.8-4.5-5.8-3 .1-4.5 2.9-4.5 6zm13.4 7V149h2l4.5 7.2c1 1.7 1.9 3.1 2.5 4.6-.2-1.9-.2-3.6-.2-5.8v-6h1.7v14.2h-1.8l-4.5-7.2c-1-1.6-1.9-3.2-2.6-4.7h-.1c.1 1.8.1 3.5.1 5.8v6h-1.6zm13.5-2.2c.8.5 2 .9 3.3.9 1.9 0 3-1 3-2.4 0-1.3-.8-2.1-2.7-2.8-2.3-.8-3.7-2-3.7-4 0-2.2 1.8-3.8 4.6-3.8 1.4 0 2.5.3 3.1.7l-.5 1.5c-.5-.3-1.4-.7-2.7-.7-1.9 0-2.7 1.2-2.7 2.1 0 1.3.9 2 2.8 2.7 2.4.9 3.6 2.1 3.6 4.2 0 2.2-1.6 4.1-5 4.1-1.4 0-2.9-.4-3.6-.9l.5-1.6zM611.7 35.1c1-.2 2.4-.3 3.8-.3 2.1 0 3.5.4 4.4 1.3.8.7 1.2 1.7 1.2 2.9 0 2-1.3 3.4-2.9 3.9v.1c1.2.4 1.9 1.5 2.3 3.1.5 2.1.9 3.6 1.2 4.2h-2.1c-.2-.4-.6-1.8-1-3.7-.5-2.1-1.3-2.9-3.1-3h-1.9v6.7h-2V35.1zm1.9 7h2c2.1 0 3.5-1.2 3.5-2.9 0-2-1.4-2.9-3.5-2.9-1 0-1.6.1-2 .2v5.6zm18.3 1h-6v5.5h6.7v1.7H624V34.9h8.3v1.7H626v4.9h6v1.6zm5.7 2.4l-1.6 4.8h-2l5.2-15.4h2.4l5.2 15.4h-2.1l-1.6-4.8h-5.5zm5.1-1.6l-1.5-4.4c-.3-1-.6-1.9-.8-2.8-.2.9-.5 1.8-.8 2.8l-1.5 4.4h4.6zm16.8 5.9c-.7.4-2.2.7-4.1.7-4.3 0-7.6-2.7-7.6-7.8 0-4.8 3.3-8.1 8-8.1 1.9 0 3.1.4 3.6.7l-.5 1.6c-.8-.4-1.8-.6-3.1-.6-3.6 0-6 2.3-6 6.3 0 3.8 2.2 6.2 5.9 6.2 1.2 0 2.4-.3 3.2-.6l.6 1.6zm4.5-14.9v6.4h7.4v-6.4h2v15.4h-2v-7.2H664v7.2h-2V34.9h2z"/>
  <path class="st4" d="M1065.6 603.2c.3.5.5 1.5.5 2.8 0 3-1.9 5.3-5.5 5.3-3.4 0-5.7-2.3-5.7-5.6 0-1.3.3-2.2.5-2.6l1.1.3c-.3.5-.4 1.3-.4 2.2 0 2.5 1.6 4.2 4.5 4.2 2.6 0 4.3-1.5 4.3-4.1 0-.8-.2-1.7-.4-2.3l1.1-.2zm-1.4-1.6c.4-.6.7-1.5.7-2.5 0-1.4-.8-2.3-1.8-2.3s-1.6.6-2.1 2c-.6 1.8-1.5 2.8-3.1 2.8-1.7 0-2.9-1.4-2.9-3.5 0-1.1.3-1.9.5-2.4l1.1.4c-.2.4-.5 1.1-.5 2 0 1.5.9 2 1.6 2 1 0 1.5-.7 2.1-2.1.7-1.8 1.6-2.8 3.2-2.8 1.7 0 3.1 1.2 3.1 3.8 0 1-.3 2.2-.7 2.8l-1.2-.2zm0-7.9c.4-.6.7-1.5.7-2.5 0-1.4-.8-2.3-1.8-2.3s-1.6.6-2.1 2c-.6 1.8-1.5 2.8-3.1 2.8-1.7 0-2.9-1.4-2.9-3.5 0-1.1.3-1.9.5-2.4l1.1.4c-.2.4-.5 1.1-.5 2 0 1.5.9 2 1.6 2 1 0 1.5-.7 2.1-2.1.7-1.8 1.6-2.8 3.2-2.8 1.7 0 3.1 1.2 3.1 3.8 0 1-.3 2.2-.7 2.8l-1.2-.2zm-3.8-20.7c3.7 0 5.7 2.3 5.7 5 0 2.8-2.2 4.8-5.5 4.8-3.4 0-5.7-2.1-5.7-5 .1-2.9 2.3-4.8 5.5-4.8zm.2 8.4c2.3 0 4.4-1.2 4.4-3.4s-2-3.5-4.5-3.5c-2.1 0-4.4 1.1-4.4 3.4s2.1 3.5 4.5 3.5zm-5.4-11.6h6.4c2.4 0 3.4-1.1 3.4-2.5 0-1.6-1.1-2.6-3.4-2.6h-6.4v-1.4h6.3c3.3 0 4.7 1.7 4.7 4.1 0 2.2-1.3 3.9-4.6 3.9h-6.4v-1.5zm1.1-11v3.3h-1.2v-8h1.2v3.3h9.6v1.4h-9.6zm-1-5.9c-.1-.7-.2-1.6-.2-2.7 0-1.4.3-2.4.9-3 .5-.6 1.3-.9 2.3-.9 1 0 1.7.3 2.3.8.8.7 1.2 1.9 1.2 3.3 0 .4 0 .8-.1 1.1h4.3v1.4h-10.7zm5.2-1.4c.1-.3.1-.7.1-1.2 0-1.7-.8-2.7-2.3-2.7-1.4 0-2.1 1-2.1 2.5 0 .6 0 1.1.1 1.3h4.2zm-5.3-8.5h6.4c2.4 0 3.4-1.1 3.4-2.5 0-1.6-1.1-2.6-3.4-2.6h-6.4v-1.4h6.3c3.3 0 4.7 1.7 4.7 4.1 0 2.2-1.3 3.9-4.6 3.9h-6.4V543zm1.1-11v3.3h-1.2v-8h1.2v3.3h9.6v1.4h-9.6z"/>
  <path class="st5" d="M483.5 63.2v12.1H482V63.2h1.5zm2.9 5.7c0-.9 0-1.6-.1-2.4h1.4l.1 1.4h.1c.5-.8 1.3-1.6 2.7-1.6 1.2 0 2.1.7 2.5 1.7.3-.5.6-.9 1-1.1.5-.4 1.1-.6 1.9-.6 1.2 0 2.9.8 2.9 3.8v5.1h-1.5v-4.9c0-1.7-.6-2.7-1.9-2.7-.9 0-1.6.7-1.9 1.4-.1.2-.1.5-.1.8v5.4H492V70c0-1.4-.6-2.4-1.8-2.4-1 0-1.7.8-2 1.6-.1.2-.1.5-.1.8v5.3h-1.5v-6.4zm15 .5c0-1.1 0-2-.1-2.8h1.4l.1 1.5c.6-1.1 1.7-1.7 3.1-1.7 2.1 0 3.7 1.8 3.7 4.4 0 3.1-1.9 4.7-4 4.7-1.2 0-2.2-.5-2.7-1.4v4.7h-1.6v-9.4zm1.6 2.4c0 .2 0 .5.1.6.3 1.1 1.2 1.9 2.4 1.9 1.7 0 2.6-1.4 2.6-3.4 0-1.7-.9-3.2-2.6-3.2-1.1 0-2.1.8-2.4 2-.1.2-.1.4-.1.6v1.5zm13.5 3.5l-.1-1.1h-.1c-.5.7-1.4 1.3-2.7 1.3-1.8 0-2.7-1.2-2.7-2.5 0-2.1 1.9-3.3 5.2-3.2v-.2c0-.7-.2-2-2-2-.8 0-1.7.3-2.3.6l-.4-1c.7-.5 1.8-.8 2.9-.8 2.7 0 3.3 1.8 3.3 3.6v3.3c0 .8 0 1.5.1 2.1h-1.2zm-.3-4.4c-1.7 0-3.7.3-3.7 2 0 1 .7 1.5 1.5 1.5 1.1 0 1.9-.7 2.1-1.5.1-.2.1-.3.1-.5v-1.5zm10.3 4.1c-.4.2-1.3.5-2.5.5-2.6 0-4.3-1.8-4.3-4.4 0-2.7 1.8-4.6 4.7-4.6.9 0 1.8.2 2.2.5l-.4 1.2c-.4-.2-1-.4-1.8-.4-2 0-3.1 1.5-3.1 3.3 0 2 1.3 3.3 3 3.3.9 0 1.5-.2 1.9-.4l.3 1zm4-10.9v2.5h2.3v1.2h-2.3v4.7c0 1.1.3 1.7 1.2 1.7.4 0 .7-.1.9-.1l.1 1.2c-.3.1-.8.2-1.4.2-.7 0-1.3-.2-1.7-.7-.5-.5-.6-1.2-.6-2.3v-4.8h-1.3v-1.2h1.3v-2.1l1.5-.3zm7.9 5.2c0-1 0-1.9-.1-2.7h1.4l.1 1.7h.1c.4-1.2 1.4-1.9 2.4-1.9.2 0 .3 0 .4.1V68c-.2 0-.3-.1-.5-.1-1.1 0-1.9.8-2.1 2 0 .2-.1.5-.1.7v4.6h-1.6v-5.9zm10.6 6l-.1-1.1h-.1c-.5.7-1.4 1.3-2.7 1.3-1.8 0-2.7-1.2-2.7-2.5 0-2.1 1.9-3.3 5.2-3.2v-.2c0-.7-.2-2-2-2-.8 0-1.7.3-2.3.6l-.4-1c.7-.5 1.8-.8 2.9-.8 2.7 0 3.3 1.8 3.3 3.6v3.3c0 .8 0 1.5.1 2.1H549zm-.2-4.4c-1.7 0-3.7.3-3.7 2 0 1 .7 1.5 1.5 1.5 1.1 0 1.9-.7 2.1-1.5.1-.2.1-.3.1-.5v-1.5zm4.1-2c0-.9 0-1.6-.1-2.4h1.4l.1 1.4c.4-.8 1.4-1.6 2.9-1.6 1.2 0 3.1.7 3.1 3.7v5.2h-1.6v-5c0-1.4-.5-2.6-2-2.6-1 0-1.9.7-2.1 1.6-.1.2-.1.5-.1.7v5.2h-1.6v-6.2zm17.5-2.3c0 .6-.1 1.3-.1 2.4v5c0 2-.4 3.2-1.2 4-.8.8-2.1 1-3.2 1-1 0-2.2-.3-2.9-.7l.4-1.2c.6.4 1.5.7 2.6.7 1.6 0 2.8-.8 2.8-3v-1c-.5.8-1.4 1.5-2.8 1.5-2.2 0-3.7-1.8-3.7-4.2 0-3 1.9-4.6 3.9-4.6 1.5 0 2.3.8 2.7 1.5l.1-1.3h1.4zm-1.7 3.4c0-.3 0-.5-.1-.7-.3-.9-1.1-1.7-2.2-1.7-1.5 0-2.6 1.3-2.6 3.3 0 1.7.9 3.1 2.6 3.1 1 0 1.9-.6 2.2-1.6.1-.3.1-.6.1-.8V70zm5.1 1.2c0 2.1 1.4 3 3 3 1.1 0 1.8-.2 2.4-.5l.3 1.1c-.6.3-1.5.5-2.9.5-2.7 0-4.3-1.8-4.3-4.4 0-2.6 1.5-4.7 4.1-4.7 2.8 0 3.6 2.5 3.6 4.1 0 .3 0 .6-.1.7h-6.1zm4.6-1.1c0-1-.4-2.6-2.2-2.6-1.6 0-2.3 1.5-2.4 2.6h4.6zm2.3 7.4c.4-1.1.9-3 1.1-4.3l1.8-.2c-.4 1.5-1.2 3.5-1.7 4.4l-1.2.1zm13.4-2.2l-.1-1.1h-.1c-.5.7-1.4 1.3-2.7 1.3-1.8 0-2.7-1.2-2.7-2.5 0-2.1 1.9-3.3 5.2-3.2v-.2c0-.7-.2-2-2-2-.8 0-1.7.3-2.3.6l-.4-1c.7-.5 1.8-.8 2.9-.8 2.7 0 3.3 1.8 3.3 3.6v3.3c0 .8 0 1.5.1 2.1h-1.2zm-.3-4.4c-1.7 0-3.7.3-3.7 2 0 1 .7 1.5 1.5 1.5 1.1 0 1.9-.7 2.1-1.5.1-.2.1-.3.1-.5v-1.5zm4.1-2c0-.9 0-1.6-.1-2.4h1.4l.1 1.4h.1c.5-.8 1.3-1.6 2.7-1.6 1.2 0 2.1.7 2.5 1.7.3-.5.6-.9 1-1.1.5-.4 1.1-.6 1.9-.6 1.2 0 2.9.8 2.9 3.8v5.1h-1.5v-4.9c0-1.7-.6-2.7-1.9-2.7-.9 0-1.6.7-1.9 1.4-.1.2-.1.5-.1.8v5.4h-1.5V70c0-1.4-.6-2.4-1.8-2.4-1 0-1.7.8-2 1.6-.1.2-.1.5-.1.8v5.3h-1.5v-6.4zm22.9 2c0 3.2-2.2 4.6-4.3 4.6-2.4 0-4.2-1.7-4.2-4.5 0-2.9 1.9-4.6 4.3-4.6 2.5 0 4.2 1.8 4.2 4.5zm-6.9.1c0 1.9 1.1 3.3 2.6 3.3s2.6-1.4 2.6-3.4c0-1.5-.7-3.3-2.6-3.3-1.8 0-2.6 1.7-2.6 3.4zm16.2 1.9c0 .9 0 1.7.1 2.4h-1.4l-.1-1.4c-.4.7-1.3 1.6-2.9 1.6-1.4 0-3-.8-3-3.8v-5.1h1.6v4.8c0 1.7.5 2.8 1.9 2.8 1.1 0 1.8-.7 2.1-1.4.1-.2.1-.5.1-.8v-5.3h1.6v6.2zm2.6-4c0-.9 0-1.6-.1-2.4h1.4l.1 1.4c.4-.8 1.4-1.6 2.9-1.6 1.2 0 3.1.7 3.1 3.7v5.2h-1.6v-5c0-1.4-.5-2.6-2-2.6-1 0-1.9.7-2.1 1.6-.1.2-.1.5-.1.7v5.2h-1.6v-6.2zm11.9-4.8v2.5h2.3v1.2h-2.3v4.7c0 1.1.3 1.7 1.2 1.7.4 0 .7-.1.9-.1l.1 1.2c-.3.1-.8.2-1.4.2-.7 0-1.3-.2-1.7-.7-.5-.5-.6-1.2-.6-2.3v-4.8h-1.3v-1.2h1.3v-2.1l1.5-.3zm15.7 6.8c0 3.2-2.2 4.6-4.3 4.6-2.4 0-4.2-1.7-4.2-4.5 0-2.9 1.9-4.6 4.3-4.6 2.5 0 4.2 1.8 4.2 4.5zm-6.9.1c0 1.9 1.1 3.3 2.6 3.3s2.6-1.4 2.6-3.4c0-1.5-.7-3.3-2.6-3.3-1.8 0-2.6 1.7-2.6 3.4zm9.1 4.3v-7.5h-1.2v-1.2h1.2v-.4c0-1.2.3-2.3 1-3 .6-.6 1.4-.8 2.1-.8.6 0 1 .1 1.4.3l-.2 1.2c-.2-.1-.6-.2-1-.2-1.4 0-1.7 1.2-1.7 2.5v.5h2.1v1.2H664v7.5h-1.5zm13.7 0l-.1-1.1h-.1c-.5.7-1.4 1.3-2.7 1.3-1.8 0-2.7-1.2-2.7-2.5 0-2.1 1.9-3.3 5.2-3.2v-.2c0-.7-.2-2-2-2-.8 0-1.7.3-2.3.6l-.4-1c.7-.5 1.8-.8 2.9-.8 2.7 0 3.3 1.8 3.3 3.6v3.3c0 .8 0 1.5.1 2.1h-1.2zm-.2-4.4c-1.7 0-3.7.3-3.7 2 0 1 .7 1.5 1.5 1.5 1.1 0 1.9-.7 2.1-1.5.1-.2.1-.3.1-.5v-1.5zm9.4 4.4v-7.5h-3.7v7.5h-1.6v-7.5H679v-1.2h1.2v-.3c0-1.2.3-2.3 1-3 .5-.5 1.2-.8 2.2-.8.5 0 1 .2 1.2.3l-.3 1.2c-.2-.1-.6-.2-.9-.2-1.2 0-1.6 1.1-1.6 2.4v.4h3.7v-.4c0-1.2.3-2.3 1-3 .6-.6 1.4-.8 2.1-.8.6 0 1 .1 1.3.3l-.2 1.2c-.3-.1-.6-.2-1-.2-1.3 0-1.7 1.2-1.7 2.5v.5h2.1v1.2H687v7.5h-1.6zm5.8-4.1c0 2.1 1.4 3 3 3 1.1 0 1.8-.2 2.4-.5l.3 1.1c-.6.3-1.5.5-2.9.5-2.7 0-4.3-1.8-4.3-4.4 0-2.6 1.5-4.7 4.1-4.7 2.8 0 3.6 2.5 3.6 4.1 0 .3 0 .6-.1.7h-6.1zm4.6-1.1c0-1-.4-2.6-2.2-2.6-1.6 0-2.3 1.5-2.4 2.6h4.6zm9.7 4.9c-.4.2-1.3.5-2.5.5-2.6 0-4.3-1.8-4.3-4.4 0-2.7 1.8-4.6 4.7-4.6.9 0 1.8.2 2.2.5l-.4 1.2c-.4-.2-1-.4-1.8-.4-2 0-3.1 1.5-3.1 3.3 0 2 1.3 3.3 3 3.3.9 0 1.5-.2 1.9-.4l.3 1zm4-10.9v2.5h2.3v1.2h-2.3v4.7c0 1.1.3 1.7 1.2 1.7.4 0 .7-.1.9-.1l.1 1.2c-.3.1-.8.2-1.4.2-.7 0-1.3-.2-1.7-.7-.5-.5-.6-1.2-.6-2.3v-4.8h-1.3v-1.2h1.3v-2.1l1.5-.3zm4.9 7.1c0 2.1 1.4 3 3 3 1.1 0 1.8-.2 2.4-.5l.3 1.1c-.6.3-1.5.5-2.9.5-2.7 0-4.3-1.8-4.3-4.4 0-2.6 1.5-4.7 4.1-4.7 2.8 0 3.6 2.5 3.6 4.1 0 .3 0 .6-.1.7h-6.1zm4.6-1.1c0-1-.4-2.6-2.2-2.6-1.6 0-2.3 1.5-2.4 2.6h4.6zm11-7.6V73c0 .8 0 1.7.1 2.3h-1.4l-.1-1.5c-.5 1-1.5 1.7-3 1.7-2.1 0-3.7-1.8-3.7-4.4 0-2.9 1.8-4.7 3.9-4.7 1.3 0 2.2.6 2.6 1.3v-5.2h1.6zm-1.6 7.6c0-.2 0-.5-.1-.7-.2-1-1.1-1.8-2.3-1.8-1.6 0-2.6 1.4-2.6 3.4 0 1.8.9 3.2 2.6 3.2 1.1 0 2-.7 2.3-1.9.1-.2.1-.4.1-.7v-1.5zm9 1.1c0 2.1 1.4 3 3 3 1.1 0 1.8-.2 2.4-.5l.3 1.1c-.6.3-1.5.5-2.9.5-2.7 0-4.3-1.8-4.3-4.4 0-2.6 1.5-4.7 4.1-4.7 2.8 0 3.6 2.5 3.6 4.1 0 .3 0 .6-.1.7h-6.1zm4.6-1.1c0-1-.4-2.6-2.2-2.6-1.6 0-2.3 1.5-2.4 2.6h4.6zm3.5-7.6h1.6v12.8h-1.6V62.5zm5.1 8.7c0 2.1 1.4 3 3 3 1.1 0 1.8-.2 2.4-.5l.3 1.1c-.6.3-1.5.5-2.9.5-2.7 0-4.3-1.8-4.3-4.4 0-2.6 1.5-4.7 4.1-4.7 2.8 0 3.6 2.5 3.6 4.1 0 .3 0 .6-.1.7h-6.1zm4.7-1.1c0-1-.4-2.6-2.2-2.6-1.6 0-2.3 1.5-2.4 2.6h4.6zm3.5-1.2c0-.9 0-1.6-.1-2.4h1.4l.1 1.4h.1c.5-.8 1.3-1.6 2.7-1.6 1.2 0 2.1.7 2.5 1.7.3-.5.6-.9 1-1.1.5-.4 1.1-.6 1.9-.6 1.2 0 2.9.8 2.9 3.8v5.1h-1.5v-4.9c0-1.7-.6-2.7-1.9-2.7-.9 0-1.6.7-1.9 1.4-.1.2-.1.5-.1.8v5.4h-1.5V70c0-1.4-.6-2.4-1.8-2.4-1 0-1.7.8-2 1.6-.1.2-.1.5-.1.8v5.3H759v-6.4zm15.8 2.3c0 2.1 1.4 3 3 3 1.1 0 1.8-.2 2.4-.5l.3 1.1c-.6.3-1.5.5-2.9.5-2.7 0-4.3-1.8-4.3-4.4 0-2.6 1.5-4.7 4.1-4.7 2.8 0 3.6 2.5 3.6 4.1 0 .3 0 .6-.1.7h-6.1zm4.7-1.1c0-1-.4-2.6-2.2-2.6-1.6 0-2.3 1.5-2.4 2.6h4.6zm3.5-1.2c0-.9 0-1.6-.1-2.4h1.4l.1 1.4c.4-.8 1.4-1.6 2.9-1.6 1.2 0 3.1.7 3.1 3.7v5.2h-1.6v-5c0-1.4-.5-2.6-2-2.6-1 0-1.9.7-2.1 1.6-.1.2-.1.5-.1.7v5.2h-1.6v-6.2zm11.8-4.8v2.5h2.3v1.2h-2.3v4.7c0 1.1.3 1.7 1.2 1.7.4 0 .7-.1.9-.1l.1 1.2c-.3.1-.8.2-1.4.2-.7 0-1.3-.2-1.7-.7-.5-.5-.6-1.2-.6-2.3v-4.8h-1.4v-1.2h1.4v-2.1l1.5-.3zm3.8 9.6c.5.3 1.3.6 2.1.6 1.2 0 1.7-.6 1.7-1.3 0-.8-.5-1.2-1.6-1.6-1.6-.6-2.3-1.4-2.3-2.5 0-1.4 1.1-2.6 3-2.6.9 0 1.7.3 2.1.5L803 68c-.3-.2-1-.5-1.8-.5-.9 0-1.5.5-1.5 1.2s.5 1 1.7 1.5c1.5.6 2.3 1.3 2.3 2.6 0 1.5-1.2 2.6-3.3 2.6-1 0-1.8-.2-2.4-.6l.4-1.1zm255 441.8l6.4 1.2c.4.1.9.1 1.4.1 1.4 0 2.1-.8 2.1-2 0-1.5-1-2.6-3.4-3l-6.4-1.2v-1.3l6.5 1.2c3.2.6 4.5 2.2 4.5 4.5 0 1.8-1 3.2-3.2 3.2-.5 0-1 0-1.5-.1l-6.3-1.2v-1.4zm9.4-6.6c.2-.4.5-1 .5-1.7 0-.9-.6-1.5-1.3-1.5-.6 0-1 .3-1.4 1.1-.5.9-1.2 1.4-2 1.4-1.4 0-2.4-1.2-2.4-2.8 0-.7.2-1.3.4-1.6l1 .4c-.2.3-.4.8-.4 1.3 0 .8.5 1.4 1.2 1.4.6 0 .9-.4 1.3-1.1.5-.9 1.2-1.5 2-1.5 1.6 0 2.5 1.3 2.5 3 0 .8-.3 1.6-.5 1.9l-.9-.3zm-8.6-7.6c-.5 0-.9-.4-.9-.9s.4-.8.8-.8c.5 0 .9.4.9.9.1.5-.3.8-.8.8zm9.9 1.7l-7.7-1.5v-1.3l7.7 1.5v1.3zm0-3.7l-5.5-1c-.9-.2-1.6-.3-2.3-.4v-1.2l1.5.2c-1.1-.7-1.7-1.7-1.7-2.9 0-.9.5-2 2.2-2 .3 0 .8.1 1.2.1l4.5.9v1.3l-4.5-.8c-.3-.1-.7-.1-1-.1-.8 0-1.4.3-1.4 1.2 0 .9 1.1 2.3 3.1 2.6l3.8.7v1.4zm1.8-8.6c.3-.5.5-1.2.5-2 0-1.3-.7-2.3-2.8-2.8l-1.2-.3c1.1.7 1.6 1.6 1.6 2.7 0 1.6-1.3 2.4-2.7 2.4-2.6 0-5.2-1.9-5.2-4.9 0-.9.3-1.9.5-2.5l6.4 1.2c1.6.3 2.8.8 3.5 1.6.7.8.9 1.8.9 2.7 0 .9-.2 1.8-.5 2.3l-1-.4zm-8.4-5.9c-.1.2-.3.7-.3 1.3 0 1.9 2 3.3 3.9 3.3.8 0 1.9-.3 1.9-1.5 0-1.1-1.4-2.3-3-2.6l-2.5-.5zm5-5.5c.4-.6.7-1.4.7-2.3 0-1.2-.7-2.3-2-2.3-.8 0-1.4.5-2 1.6-.7 1.4-1.6 2.1-2.8 2.1-1.9 0-3.2-1.7-3.2-3.6 0-1 .3-1.8.6-2.2l1.1.5c-.2.3-.5 1-.5 1.9 0 1.3.9 2.1 1.8 2.1s1.4-.5 2-1.7c.7-1.3 1.6-2.1 2.9-2.1 1.9 0 3.3 1.5 3.3 3.9 0 1.1-.4 2.1-.7 2.6l-1.2-.5zm-1.8-9.5l3.4 1.7v1.4l-10.8-5.6v-1.6l10.8-1.5v1.4l-3.4.4v3.8zm-1-3.6l-3.1.4c-.6.1-1.3.1-2 .2.6.3 1.3.6 2 .9l3.1 1.6v-3.1zm2.8-3.5c.4-.6.7-1.4.7-2.3 0-1.2-.7-2.3-2-2.3-.8 0-1.4.5-2 1.6-.7 1.4-1.6 2.1-2.8 2.1-1.9 0-3.2-1.7-3.2-3.6 0-1 .3-1.8.6-2.2l1.1.5c-.2.3-.5 1-.5 1.9 0 1.3.9 2.1 1.8 2.1s1.4-.5 2-1.7c.7-1.3 1.6-2.1 2.9-2.1 1.9 0 3.3 1.5 3.3 3.9 0 1.1-.4 2.1-.7 2.6l-1.2-.5zm0-7.4c.4-.6.7-1.4.7-2.3 0-1.2-.7-2.3-2-2.3-.8 0-1.4.5-2 1.6-.7 1.4-1.6 2.1-2.8 2.1-1.9 0-3.2-1.7-3.2-3.6 0-1 .3-1.8.6-2.2l1.1.5c-.2.3-.5 1-.5 1.9 0 1.3.9 2.1 1.8 2.1s1.4-.5 2-1.7c.7-1.3 1.6-2.1 2.9-2.1 1.9 0 3.3 1.5 3.3 3.9 0 1.1-.4 2.1-.7 2.6l-1.2-.5zm2.3-8.9l-11.6-6.4v-1.1l11.6 6.5v1zm-11.4-11.5v-1.3l9.6 1.8V431l1.2.2v5.7l-10.8-2zm5.7-11.2v3.9l3.9.7v-4.4l1.1.2v5.7l-10.8-2v-5.5l1.1.2v4.2l3.5.7v-3.9l1.2.2zm3.4-1.5c.4-.6.7-1.4.7-2.3 0-1.2-.7-2.3-2-2.3-.8 0-1.4.5-2 1.6-.7 1.4-1.6 2.1-2.8 2.1-1.9 0-3.2-1.7-3.2-3.6 0-1 .3-1.8.6-2.2l1.1.5c-.2.3-.5 1-.5 1.9 0 1.3.9 2.1 1.8 2.1s1.4-.5 2-1.7c.7-1.3 1.6-2.1 2.9-2.1 1.9 0 3.3 1.5 3.3 3.9 0 1.1-.4 2.1-.7 2.6l-1.2-.5zm0-7.5c.4-.6.7-1.4.7-2.3 0-1.2-.7-2.3-2-2.3-.8 0-1.4.5-2 1.6-.7 1.4-1.6 2.1-2.8 2.1-1.9 0-3.2-1.7-3.2-3.6 0-1 .3-1.8.6-2.2l1.1.5c-.2.3-.5 1-.5 1.9 0 1.3.9 2.1 1.8 2.1s1.4-.5 2-1.7c.7-1.3 1.6-2.1 2.9-2.1 1.9 0 3.3 1.5 3.3 3.9 0 1.1-.4 2.1-.7 2.6l-1.2-.5zM86.1 515.9c0 2.4-1.7 4.9-4.3 4.9-1.9 0-3-1.4-3-3.2 0-2.5 1.8-4.9 4.3-4.9 2 0 3 1.6 3 3.2zm-6 1.6c0 1.3.7 2.2 1.8 2.2 1.6 0 2.8-2 2.8-3.8 0-.9-.4-2.2-1.8-2.2-1.7 0-2.8 2.1-2.8 3.8zm6.9 3.1l.9-5c.2-1 .3-2 .4-2.8h1.2c-.1.5-.1 1.1-.2 1.7.5-1.1 1.3-1.9 2.4-1.9h.4l-.3 1.3h-.4c-1.2 0-2.2 1.4-2.5 3.2l-.6 3.4H87zm9.8-7.8l.3 4.4c.1 1 0 1.5 0 2.1l.8-1.9 2.3-4.5h1.2l.5 4.4c.1.8.1 1.5.1 2 .2-.6.4-1.2.7-2l2.1-4.5h1.3l-3.8 7.7h-1.2l-.5-4.2c-.1-.7-.1-1.4-.1-2-.3.7-.5 1.3-.9 2l-2.2 4.2h-1.2l-.7-7.7h1.3zm9.5 7.8l2.2-11.4h1.3l-1 5c.7-.9 1.6-1.6 2.8-1.6.9 0 1.9.5 1.9 2.1 0 .4 0 .9-.1 1.3l-.9 4.5h-1.3l.9-4.5c0-.3.1-.6.1-1.1 0-.7-.3-1.3-1.2-1.3-1 0-2.3 1.2-2.6 2.9l-.7 3.9h-1.4zm13.7 0c0-.5.1-1.2.2-2-.8 1.6-1.9 2.2-3 2.2-1.4 0-2.2-1.1-2.2-2.6 0-2.7 2-5.5 5.4-5.5.7 0 1.6.1 2.1.3l-.8 4c-.3 1.3-.4 2.7-.3 3.6H120zm.9-6.8c-.2 0-.5-.1-.9-.1-2 0-3.6 2.1-3.6 4.2 0 .9.3 1.7 1.3 1.7 1.1 0 2.4-1.4 2.8-3.5l.4-2.3zm5.8-3l-.4 2.1h1.9l-.2 1h-1.9l-.7 3.8c-.1.4-.1.8-.1 1.2 0 .5.2.7.7.7h.6l-.1 1c-.2.1-.6.1-1 .1-1.2 0-1.6-.7-1.6-1.5 0-.4 0-.9.2-1.5l.8-3.9h-1.1l.2-1h1.1l.3-1.7 1.3-.3zm7 9.3c-.6.3-1.5.6-2.6.6-2 0-2.9-1.4-2.9-3.1 0-2.3 1.7-5 4.2-5 1.5 0 2.3.9 2.3 2 0 2-2.3 2.6-5.2 2.5-.1.3 0 1.1.2 1.5.3.7.9 1 1.7 1 .9 0 1.6-.3 2.1-.5l.2 1zm-1.4-6.4c-1.3 0-2.2 1.2-2.5 2.4 2.1 0 3.7-.3 3.7-1.5-.1-.5-.5-.9-1.2-.9zm4.8-.9l.7 4.4c.1.9.2 1.5.2 1.9.2-.4.4-.9.8-1.8l2.4-4.5h1.5l-4.3 7.7h-1.3l-1.3-7.7h1.3zm11 7.3c-.6.3-1.5.6-2.6.6-2 0-2.9-1.4-2.9-3.1 0-2.3 1.7-5 4.2-5 1.5 0 2.3.9 2.3 2 0 2-2.3 2.6-5.2 2.5-.1.3 0 1.1.2 1.5.3.7.9 1 1.7 1 .9 0 1.6-.3 2.1-.5l.2 1zm-1.4-6.4c-1.3 0-2.2 1.2-2.5 2.4 2.1 0 3.7-.3 3.7-1.5-.1-.5-.5-.9-1.2-.9zm3.1 6.9l.9-5c.2-1 .3-2 .4-2.8h1.2c-.1.5-.1 1.1-.2 1.7.5-1.1 1.3-1.9 2.4-1.9h.4l-.3 1.3h-.4c-1.2 0-2.2 1.4-2.5 3.2l-.6 3.4h-1.3zm9.7-7.8l.8 4.2c.2.9.3 1.5.4 2 .2-.5.4-1 .8-1.9l2-4.3h1.4l-2.9 5.9c-.8 1.7-1.6 3-2.7 4.1-.9.9-1.8 1.2-2.3 1.3l-.3-1.1c.3-.1.9-.3 1.4-.8.5-.4 1.1-1 1.5-1.8.1-.1.1-.2 0-.4l-1.6-7.3h1.5zm12.6 3.1c0 2.4-1.7 4.9-4.3 4.9-1.9 0-3-1.4-3-3.2 0-2.5 1.8-4.9 4.3-4.9 2.1 0 3 1.6 3 3.2zm-5.9 1.6c0 1.3.7 2.2 1.8 2.2 1.6 0 2.8-2 2.8-3.8 0-.9-.4-2.2-1.8-2.2-1.7 0-2.8 2.1-2.8 3.8zm14.4-4.7l-1 5.5c-.2.9-.3 1.6-.4 2.3H178l.2-1.5c-.7 1-1.7 1.6-2.7 1.6-1 0-2-.5-2-2.2 0-.4 0-.8.1-1.3l.8-4.4h1.3l-.8 4.3c-.1.4-.1.8-.1 1.1 0 .8.3 1.3 1.2 1.3 1 0 2.2-1.1 2.5-2.8l.8-4h1.3zm5.6 0l.3 4.4c.1 1 0 1.5 0 2.1l.8-1.9 2.3-4.5h1.2l.5 4.4c.1.8.1 1.5.1 2 .2-.6.4-1.2.7-2l2.1-4.5h1.3l-3.8 7.7h-1.2l-.5-4.2c-.1-.7-.1-1.4-.1-2-.3.7-.5 1.3-.9 2l-2.2 4.2h-1.2l-.7-7.7h1.3zm14.4 7.8c0-.5.1-1.2.2-2-.8 1.6-1.9 2.2-3 2.2-1.4 0-2.2-1.1-2.2-2.6 0-2.7 2-5.5 5.4-5.5.7 0 1.6.1 2.1.3l-.8 4c-.3 1.3-.4 2.7-.3 3.6h-1.4zm.8-6.8c-.2 0-.5-.1-.9-.1-2 0-3.6 2.1-3.6 4.2 0 .9.3 1.7 1.3 1.7 1.1 0 2.4-1.4 2.8-3.5l.4-2.3zm2.4 6.8l1-5.5c.2-.9.3-1.6.4-2.3h1.2l-.2 1.5c.7-1.1 1.7-1.7 2.9-1.7.9 0 2 .5 2 2.2 0 .3-.1.8-.1 1.2l-.9 4.5h-1.3l.8-4.5c.1-.3.1-.7.1-1 0-.8-.3-1.4-1.2-1.4-.9 0-2.3 1.1-2.6 3.1l-.7 3.8h-1.4zm12-9.8l-.4 2.1h1.9l-.2 1h-1.9l-.7 3.8c-.1.4-.1.8-.1 1.2 0 .5.2.7.7.7h.6l-.1 1c-.2.1-.6.1-1 .1-1.2 0-1.6-.7-1.6-1.5 0-.4 0-.9.2-1.5l.8-3.9h-1.1l.2-1h1.1l.3-1.7 1.3-.3zm136.4-240.1c0 .8.2 1.9.7 2.8.8 1.4 2 1.8 3.1 1.2 1-.6 1.2-1.5.9-3.2-.4-2.1-.1-3.6 1.4-4.5 1.6-1 3.6-.3 4.8 1.7.6 1.1.8 2 .8 2.6l-1.3.3c0-.5-.1-1.3-.7-2.3-.8-1.4-2-1.5-2.7-1.1-1 .6-1.1 1.5-.8 3.3.3 2.2 0 3.6-1.5 4.5-1.6.9-3.7.6-5.2-1.9-.6-1-.9-2.3-.9-3.1l1.4-.3zm6.9 7.6c-1.8 1.1-1.9 2.7-1.1 4.1.6 1 1.1 1.5 1.6 1.9l-.8.8c-.5-.4-1.2-1-1.9-2.2-1.3-2.3-.6-4.6 1.6-5.9 2.3-1.3 4.8-1 6.1 1.2 1.4 2.5-.4 4.4-1.7 5.2-.3.2-.5.3-.7.3l-3.1-5.4zm3.3 3.5c.9-.5 2-1.7 1.1-3.2-.8-1.4-2.4-1.2-3.4-.8l2.3 4zm8.3-.8l.8 1.4-11.1 6.4-.8-1.4 11.1-6.4zm-5 8.8c-1.8 1.1-1.9 2.7-1.1 4.1.6 1 1.1 1.5 1.6 1.9l-.8.8c-.5-.4-1.2-1-1.9-2.2-1.3-2.3-.6-4.6 1.6-5.9 2.3-1.3 4.8-1 6.1 1.2 1.4 2.5-.4 4.4-1.7 5.2-.3.2-.5.3-.7.3l-3.1-5.4zm3.3 3.4c.9-.5 2-1.7 1.1-3.2-.8-1.4-2.4-1.2-3.4-.8l2.3 4zm.7 10.9c-.4-.2-1.1-.9-1.7-1.9-1.3-2.3-.6-4.6 1.7-6 2.3-1.3 4.9-.7 6.4 1.7.5.8.7 1.6.7 2.1l-1.2.3c0-.4-.1-1-.6-1.8-1-1.7-2.8-1.9-4.4-1-1.7 1-2.2 2.8-1.3 4.3.5.8 1 1.2 1.4 1.5l-1 .8zm11.4-2l-2.2 1.3 1.1 2-1 .6-1.1-2-4.1 2.4c-.9.5-1.3 1.1-.9 1.9.2.4.4.6.6.7l-1 .7c-.3-.2-.6-.6-.9-1.1-.4-.6-.5-1.3-.3-1.8.2-.6.8-1.2 1.7-1.7l4.1-2.4-.7-1.2 1-.6.7 1.2 1.8-1 1.2 1zm.1 13.6c-2.8 1.6-5.1.4-6.2-1.4-1.2-2-.6-4.5 1.8-5.9 2.5-1.5 5-.7 6.2 1.4 1.2 2.2.5 4.6-1.8 5.9zm-3.5-5.9c-1.6 1-2.3 2.6-1.6 4 .8 1.3 2.6 1.6 4.3.6 1.3-.7 2.5-2.3 1.6-3.9-1-1.7-2.9-1.6-4.3-.7zm5.9 6.8c.9-.5 1.6-1 2.3-1.4l.7 1.2-1.5.9v.1c1.2-.2 2.3.2 2.9 1.1.1.2.1.3.2.4l-1.3.8c-.1-.2-.1-.3-.2-.5-.6-1-1.7-1.2-2.8-.8-.2.1-.4.2-.7.3l-4 2.3-.8-1.4 5.2-3zm2.1 15.6l.9-.7c-.8-.1-1.8-.6-2.5-1.7-.9-1.5-.3-2.9.8-3.6 1.8-1.1 3.8 0 5.4 2.9l.2-.1c.6-.4 1.6-1.2.7-2.7-.4-.7-1.1-1.3-1.7-1.6l.7-.8c.8.4 1.6 1.1 2.1 2.1 1.3 2.3.1 3.8-1.4 4.7l-2.8 1.6c-.7.4-1.3.8-1.7 1.2l-.7-1.3zm3.7-2.4c-.8-1.5-2.1-3.1-3.6-2.2-.9.5-1 1.4-.6 2.1.6 1 1.6 1.2 2.3 1.1.2 0 .3-.1.5-.2l1.4-.8zm3.7 2.5c.8-.5 1.4-.8 2-1.2l.7 1.2-1.2.8c.9 0 2.1.4 2.9 1.7.6 1 .9 3-1.7 4.5l-4.5 2.6-.8-1.4 4.3-2.5c1.2-.7 2-1.7 1.2-3-.5-.9-1.6-1.2-2.5-1-.2 0-.5.1-.7.3l-4.5 2.6-.8-1.4 5.6-3.2zm14.4 11.9l-9.1 5.3c-.7.4-1.4.8-1.9 1.2l-.7-1.2 1.3-.8c-1.1.1-2.3-.5-3-1.7-1.1-1.8-.3-4.1 2-5.4 2.5-1.5 4.9-.8 6 1 .7 1.2.6 2.2.2 2.9l4.5-2.6.7 1.3zm-7.4 2.5c.2-.1.4-.3.5-.4.8-.7 1-1.9.4-2.9-.8-1.4-2.6-1.5-4.2-.6-1.5.9-2.4 2.4-1.5 3.8.5.9 1.6 1.4 2.8 1.1l.6-.3 1.4-.7zm4.6 6.6c1-.6 1.7-1 2.4-1.5l.7 1.2-1.3.8c1.2 0 2.3.6 3 1.8 1.1 1.8.3 4.1-2 5.4-2.7 1.6-5 .7-6-1.1-.6-1-.7-2.1-.2-3l-4.1 2.4-.8-1.4 8.3-4.6zm-1.2 2.5c-.2.1-.4.3-.5.4-.8.8-1 2-.4 3 .8 1.4 2.5 1.6 4.2.6 1.5-.9 2.3-2.4 1.5-3.9-.5-.9-1.7-1.4-2.9-1.1-.2.1-.4.1-.6.2l-1.3.8zm6.5 6.3c.9-.5 1.6-1 2.3-1.4l.7 1.2-1.5.9v.1c1.2-.2 2.3.2 2.9 1.1.1.2.1.3.2.4l-1.3.8c-.1-.2-.1-.3-.2-.5-.6-1-1.7-1.2-2.8-.8-.2.1-.4.2-.7.3l-4 2.3-.8-1.4 5.2-3zm5.5 12.5c-2.8 1.6-5.1.4-6.2-1.4-1.2-2-.6-4.5 1.8-5.9 2.5-1.5 5-.7 6.2 1.4 1.2 2.2.5 4.6-1.8 5.9zm-3.6-5.9c-1.7 1-2.3 2.6-1.6 4 .8 1.3 2.6 1.6 4.3.6 1.3-.7 2.5-2.3 1.6-3.9-.9-1.7-2.8-1.5-4.3-.7zm5.8 6.9c1-.6 1.7-1 2.4-1.5l.7 1.2-1.3.8c1.2 0 2.3.6 3 1.8 1.1 1.8.3 4.1-2 5.4-2.7 1.6-5 .7-6-1.1-.6-1-.7-2.1-.2-3l-4.1 2.4-.8-1.4 8.3-4.6zm-1.2 2.5c-.2.1-.4.3-.5.4-.8.8-1 2-.4 3 .8 1.4 2.5 1.6 4.2.6 1.5-.9 2.3-2.4 1.5-3.9-.5-.9-1.7-1.4-2.9-1.1-.2.1-.4.1-.6.2l-1.3.8zm5.3 8c-1.8 1.1-1.9 2.7-1.1 4.1.6 1 1.1 1.5 1.6 1.9l-.8.8c-.5-.4-1.2-1-1.9-2.2-1.3-2.3-.6-4.6 1.6-5.9 2.3-1.3 4.8-1 6.1 1.2 1.4 2.5-.4 4.4-1.7 5.2-.3.2-.5.3-.7.3l-3.1-5.4zm3.3 3.5c.9-.5 2-1.7 1.1-3.2-.8-1.4-2.4-1.2-3.4-.8l2.3 4zm2.4 2.6c.9-.5 1.6-1 2.3-1.4l.7 1.2-1.5.9v.1c1.2-.2 2.3.2 2.9 1.1.1.2.1.3.2.4l-1.3.8c-.1-.2-.1-.3-.2-.5-.6-1-1.7-1.2-2.8-.8-.2.1-.4.2-.7.3l-4 2.3-.8-1.4 5.2-3zm8.7 4.5L434 398l1.1 2-1 .6-1.1-2-4.1 2.4c-.9.5-1.3 1.1-.9 1.9.2.4.4.6.6.7l-1 .7c-.3-.2-.6-.6-.9-1.1-.4-.6-.5-1.3-.3-1.8.2-.6.8-1.2 1.7-1.7l4.1-2.4-.7-1.2 1-.6.7 1.2 1.8-1.1 1.2 1.1zm-7.7 9.1l7.5-4.4.8 1.4-7.5 4.4-.8-1.4zm10.5-4.1c-.5.3-1 .2-1.3-.4-.3-.5-.1-1 .4-1.3.5-.3 1.1-.1 1.4.4.2.5 0 1.1-.5 1.3zm-4.4 6.5c-1.8 1.1-1.9 2.7-1.1 4.1.6 1 1.1 1.5 1.6 1.9l-.8.8c-.5-.4-1.2-1-1.9-2.2-1.3-2.3-.6-4.6 1.6-5.9 2.3-1.3 4.8-1 6.1 1.2 1.4 2.5-.4 4.4-1.7 5.2-.3.2-.5.3-.7.3l-3.1-5.4zm3.3 3.4c.9-.5 2-1.7 1.1-3.2-.8-1.4-2.4-1.2-3.4-.8l2.3 4zm-1.4 4.7c0 .6.1 1.4.5 2.1.6 1 1.3 1.2 2 .8.7-.4.8-1 .6-2.2-.3-1.6.1-2.7 1-3.2 1.2-.7 2.8-.3 3.7 1.3.4.8.6 1.6.6 2.1l-1.2.2c0-.4-.1-1.1-.5-1.8-.5-.8-1.2-1-1.8-.7-.6.4-.6 1-.4 2.2.3 1.6 0 2.6-1.1 3.3-1.3.8-2.9.3-3.9-1.5-.5-.8-.7-1.7-.7-2.4l1.2-.2zm5.5 9.4c0 .6.1 1.4.5 2.1.6 1 1.3 1.2 2 .8.7-.4.8-1 .6-2.2-.3-1.6.1-2.7 1-3.2 1.2-.7 2.8-.3 3.7 1.3.4.8.6 1.6.6 2.1l-1.2.2c0-.4-.1-1.1-.5-1.8-.5-.8-1.2-1-1.8-.7-.6.4-.6 1-.4 2.2.3 1.6 0 2.6-1.1 3.3-1.3.8-2.9.3-3.9-1.5-.5-.8-.7-1.7-.7-2.4l1.2-.2zm12.9 3.2l-2.2 1.3 1.1 2-1 .6-1.1-2-4.1 2.4c-.9.5-1.3 1.1-.9 1.9.2.4.4.6.6.7l-1 .7c-.3-.2-.6-.6-.9-1.1-.4-.6-.5-1.3-.3-1.8.2-.6.8-1.2 1.7-1.7l4.1-2.4-.7-1.2 1-.6.7 1.2 1.8-1 1.2 1zm-2.5 6.1c.9-.5 1.6-1 2.3-1.4l.7 1.2-1.5.9v.1c1.2-.2 2.3.2 2.9 1.1.1.2.1.3.2.4l-1.3.8c0-.2-.1-.3-.2-.5-.6-1-1.7-1.2-2.8-.8-.2.1-.4.2-.7.3l-4 2.3-.8-1.4 5.2-3zm1.7 6.7c-1.8 1.1-1.9 2.7-1.1 4.1.6 1 1.1 1.5 1.6 1.9l-.8.8c-.5-.4-1.2-1-1.9-2.2-1.3-2.3-.6-4.6 1.6-5.9 2.3-1.3 4.8-1 6.1 1.2 1.4 2.5-.4 4.4-1.7 5.2-.3.2-.5.3-.7.3l-3.1-5.4zm3.3 3.4c.9-.5 2-1.7 1.1-3.2-.8-1.4-2.4-1.2-3.4-.8l2.3 4zm2.7 2.5c.8-.5 1.4-.8 2-1.2l.7 1.2-1.2.8c.9 0 2.1.4 2.9 1.7.6 1 .9 3-1.7 4.5l-4.5 2.6-.8-1.4 4.3-2.5c1.2-.7 2-1.7 1.2-3-.5-.9-1.6-1.2-2.5-1-.2 0-.5.1-.7.3l-4.5 2.6-.8-1.4 5.6-3.2zm10.9 13.9c-.6.3-1.2.6-2.1 1.1l-4.4 2.5c-1.7 1-3 1.3-4.1.9-1.1-.3-1.9-1.3-2.5-2.2-.5-.9-.9-2-.8-2.9l1.2-.3c0 .7.2 1.6.7 2.6.8 1.4 2.1 2 4 .9l.8-.5c-.9 0-2-.5-2.7-1.7-1.1-1.9-.3-4.1 1.8-5.3 2.6-1.5 5-.7 6 1.1.8 1.3.5 2.4.1 3.1l1.2-.6.8 1.3zm-3.8.3c.2-.1.4-.3.6-.4.6-.7.9-1.8.3-2.8-.8-1.3-2.4-1.6-4.2-.6-1.5.9-2.3 2.3-1.4 3.8.5.8 1.5 1.3 2.5 1.1.3-.1.6-.2.8-.3l1.4-.8zm8.6-.1l.8 1.4-4.7 2.7c.5 0 1.1.1 1.5.4.5.3.9.7 1.2 1.2.6 1 .9 3-1.7 4.5l-4.5 2.6-.8-1.4 4.3-2.5c1.2-.7 2-1.8 1.2-3-.5-.9-1.5-1.2-2.4-1-.2 0-.4.1-.7.3l-4.5 2.6-.8-1.4 11.1-6.4zm4.6 11l-2.2 1.3 1.1 2-1 .6-1.1-2-4.1 2.4c-.9.5-1.3 1.1-.9 1.9.2.4.4.6.6.7l-1 .7c-.3-.2-.6-.6-.9-1.1-.4-.6-.5-1.3-.3-1.8.2-.6.8-1.2 1.7-1.7l4.1-2.4-.7-1.2 1-.6.7 1.2 1.8-1 1.2 1zm282.9 65.7l.8-1.4 9.4 5.3 2.5-4.5 1.1.6-3.3 5.9-10.5-5.9zm11.5-4c1.9 1 3.3.3 4.1-1.1.6-1 .7-1.7.8-2.3l1.1.3c-.1.6-.3 1.6-.9 2.8-1.3 2.3-3.6 2.9-5.9 1.6s-3.3-3.6-2.1-5.9c1.4-2.5 3.9-1.9 5.3-1.1.3.2.5.3.6.4l-3 5.3zm1.2-4.6c-.9-.5-2.4-.9-3.3.7-.8 1.4.2 2.7 1.1 3.4l2.2-4.1zm4.8-1.1c.5-.3 1.2-.8 1.6-1.5.6-1 .3-1.8-.3-2.1-.7-.4-1.2-.2-2.2.6-1.3 1.1-2.4 1.3-3.3.8-1.2-.7-1.7-2.2-.8-3.9.4-.8 1-1.3 1.5-1.6l.8.9c-.4.2-.9.6-1.3 1.3-.5.8-.2 1.5.3 1.9.6.4 1.2.1 2.1-.7 1.2-1 2.3-1.3 3.4-.7 1.3.7 1.7 2.3.7 4.1-.5.8-1.1 1.5-1.7 1.8l-.8-.9zm3.5-6.2c.5-.3 1.2-.8 1.6-1.5.6-1 .3-1.8-.3-2.1-.7-.4-1.2-.2-2.2.6-1.3 1.1-2.4 1.3-3.3.8-1.2-.7-1.7-2.2-.8-3.9.4-.8 1-1.3 1.5-1.6l.8.9c-.4.2-.9.6-1.3 1.3-.5.8-.2 1.5.3 1.9.6.4 1.2.1 2.1-.7 1.2-1 2.3-1.3 3.4-.7 1.3.7 1.7 2.3.7 4.1-.5.8-1.1 1.5-1.7 1.8l-.8-.9zm9.2-13.2l-1-.4c.4.8.4 1.9-.2 3-.9 1.5-2.4 1.7-3.5 1.1-1.8-1-1.9-3.2-.3-6.2l-.2-.1c-.6-.4-1.9-.8-2.7.7-.4.7-.6 1.6-.5 2.3l-1.1-.2c-.1-.9.2-1.9.7-2.9 1.3-2.3 3.2-2 4.7-1.2l2.8 1.6c.7.4 1.3.7 1.9.9l-.6 1.4zm-4-2c-.9 1.5-1.6 3.4-.1 4.2.9.5 1.7.1 2-.6.6-1 .3-2-.2-2.6-.1-.1-.3-.2-.4-.3l-1.3-.7zm5.8-1.3c-.5-.3-1.3-.8-1.9-1.2l-9.2-5.1.8-1.4 4.8 2.7c-.6-1-.6-2.2.1-3.4 1.1-1.9 3.4-2.3 5.7-1 2.7 1.5 3.1 4 2.2 5.7-.6 1.1-1.5 1.7-2.9 1.7l1.2.8-.8 1.2zm-2.2-3.1c.2.1.4.2.5.2 1.1.3 2.2-.2 2.8-1.2.8-1.4.1-3-1.6-3.9-1.5-.9-3.3-.8-4.1.7-.5.9-.4 2.2.5 3.1.1.1.3.3.5.4l1.4.7zm5.7-6.5c.5-.3 1.2-.8 1.6-1.5.6-1 .3-1.8-.3-2.1-.7-.4-1.2-.2-2.2.6-1.3 1.1-2.4 1.3-3.3.8-1.2-.7-1.7-2.2-.8-3.9.4-.8 1-1.3 1.5-1.6l.8.9c-.4.2-.9.6-1.3 1.3-.5.8-.2 1.5.3 1.9.6.4 1.2.1 2.1-.7 1.2-1 2.3-1.3 3.4-.7 1.3.7 1.7 2.3.7 4.1-.5.8-1.1 1.5-1.7 1.8l-.8-.9zm-3.8-12.8l2.2 1.2 1.1-2 1.1.6-1.1 2 4.1 2.3c.9.5 1.6.6 2.1-.2.2-.4.3-.7.4-.9l1.1.5c0 .3-.2.8-.5 1.3-.4.6-.9 1-1.4 1.2-.6.2-1.4-.1-2.3-.6l-4.1-2.3-.7 1.2-1.1-.6.7-1.2-1.8-1 .2-1.5zm6.5-.9c-.9-.5-1.7-.9-2.4-1.3l.7-1.2 1.5.8v-.1c-.8-.9-1-2.1-.5-3 .1-.2.2-.3.3-.4l1.3.7c-.1.1-.2.3-.3.4-.5 1-.2 2.1.7 2.8.2.1.4.3.6.4l4.1 2.3-.8 1.4-5.2-2.8zm10.4-6.4l-1-.4c.4.8.4 1.9-.2 3-.9 1.5-2.4 1.7-3.5 1.1-1.8-1-1.9-3.2-.3-6.2l-.2-.1c-.6-.4-1.9-.8-2.7.7-.4.7-.6 1.6-.5 2.3l-1.1-.2c-.1-.9.2-1.9.7-2.9 1.3-2.3 3.2-2 4.7-1.1l2.8 1.6c.7.4 1.3.7 1.9.9l-.6 1.3zm-4-1.9c-.9 1.5-1.6 3.4-.1 4.2.9.5 1.7.1 2-.6.6-1 .3-2-.2-2.5-.1-.1-.3-.2-.4-.3l-1.3-.8zm8.7-7c0 .5-.2 1.4-.8 2.4-1.3 2.3-3.7 2.9-6 1.6-2.3-1.3-3.1-3.9-1.8-6.3.5-.8 1.1-1.4 1.5-1.7l.9.9c-.4.2-.8.6-1.3 1.4-1 1.7-.2 3.4 1.4 4.3 1.8 1 3.5.5 4.3-1 .4-.8.5-1.4.6-1.9l1.2.3zm-7.6-8.8l2.2 1.2 1.1-2 1.1.6-1.1 2 4.1 2.3c.9.5 1.6.6 2.1-.2.2-.4.3-.7.4-.9l1.1.5c0 .3-.2.8-.5 1.3-.4.6-.9 1-1.4 1.2-.6.2-1.4-.1-2.3-.6l-4.1-2.3-.7 1.2-1.1-.6.7-1.2-1.8-1 .2-1.5zm2.9-5.1c.5.2.7.8.4 1.4-.3.5-.8.6-1.3.4-.5-.3-.7-.8-.4-1.3.3-.6.8-.7 1.3-.5zm8.9 7l-7.6-4.3.8-1.4 7.6 4.3-.8 1.4zm2-12.7c2.8 1.6 2.9 4.2 1.9 6-1.2 2.1-3.5 2.8-6 1.5-2.5-1.4-3.1-3.9-1.9-6 1.3-2.2 3.7-2.8 6-1.5zm-3.3 6.1c1.7.9 3.5.7 4.2-.7.7-1.3.1-3-1.7-4-1.3-.7-3.3-1-4.2.6-.8 1.7.3 3.3 1.7 4.1zm2.6-8.8c-.8-.4-1.4-.8-2.1-1.1l.7-1.2 1.3.6c-.5-.8-.7-2.1 0-3.3.6-1.1 2.1-2.3 4.7-.9l4.5 2.5-.8 1.4-4.4-2.5c-1.2-.7-2.5-.8-3.2.5-.5.9-.3 2 .4 2.6.1.2.4.3.6.5l4.6 2.6-.8 1.4-5.5-3.1zm12.3-18c2.8 1.6 2.9 4.2 1.9 6-1.2 2.1-3.5 2.8-6 1.5-2.5-1.4-3.1-3.9-1.9-6 1.3-2.2 3.7-2.8 6-1.5zm-3.3 6.1c1.7.9 3.5.7 4.2-.7.7-1.3.1-3-1.7-4-1.3-.7-3.3-1-4.2.6-.9 1.7.3 3.3 1.7 4.1zm2.6-8.8c-.8-.4-1.4-.8-2.1-1.1l.7-1.2 1.3.6c-.5-.8-.7-2.1 0-3.3.6-1.1 2.1-2.3 4.7-.9l4.5 2.5-.8 1.4-4.4-2.5c-1.2-.7-2.5-.8-3.2.5-.5.9-.3 2 .4 2.6.1.2.4.3.6.5l4.6 2.6-.8 1.4-5.5-3.1zm10.8-9.5c.5-.3 1.2-.8 1.6-1.5.6-1 .3-1.8-.3-2.1-.7-.4-1.2-.2-2.2.6-1.3 1.1-2.4 1.3-3.3.8-1.2-.7-1.7-2.2-.8-3.9.4-.8 1-1.3 1.5-1.6l.8.9c-.4.2-.9.6-1.3 1.3-.5.8-.2 1.5.3 1.9.6.4 1.2.1 2.1-.7 1.2-1 2.3-1.3 3.4-.7 1.3.7 1.7 2.3.7 4.1-.5.8-1.1 1.5-1.7 1.8l-.8-.9zm1.8-8.4c1.9 1 3.3.3 4.1-1.1.6-1 .7-1.7.8-2.3l1.1.3c-.1.6-.3 1.6-.9 2.8-1.3 2.3-3.6 2.9-5.9 1.6-2.3-1.3-3.3-3.6-2.1-5.9 1.4-2.5 3.9-1.9 5.3-1.1.3.2.5.3.6.4l-3 5.3zm1.3-4.6c-.9-.5-2.4-.9-3.3.7-.8 1.4.2 2.7 1.1 3.4l2.2-4.1zm-4.9-6.7l.8-1.4 11.2 6.2-.8 1.4-11.2-6.2zm10.1-.2c1.9 1 3.3.3 4.1-1.1.6-1 .7-1.7.8-2.3l1.1.3c-.1.6-.3 1.6-.9 2.8-1.3 2.3-3.6 2.9-5.9 1.6-2.3-1.3-3.3-3.6-2.1-5.9 1.4-2.5 3.9-1.9 5.3-1.1.3.2.5.3.6.4l-3 5.3zm1.3-4.7c-.9-.5-2.4-.9-3.3.7-.8 1.4.2 2.7 1.1 3.4l2.2-4.1zm9-6c0 .5-.2 1.4-.8 2.4-1.3 2.3-3.7 2.9-6 1.6-2.3-1.3-3.1-3.9-1.8-6.3.5-.8 1.1-1.4 1.5-1.7l.9.9c-.4.2-.8.6-1.3 1.4-1 1.7-.2 3.4 1.4 4.3 1.8 1 3.5.5 4.3-1 .4-.8.5-1.4.6-1.9l1.2.3zm-7.6-8.8l2.2 1.2 1.1-2 1.1.6-1.1 2 4.1 2.3c.9.5 1.6.6 2.1-.2.2-.4.3-.7.4-.9l1.1.5c0 .3-.2.8-.5 1.3-.4.6-.9 1-1.4 1.2-.6.2-1.4-.1-2.3-.6l-4.1-2.3-.7 1.2-1.1-.6.7-1.2-1.8-1 .2-1.5zm11.7-7.1c2.8 1.6 2.9 4.2 1.9 6-1.2 2.1-3.5 2.8-6 1.5-2.5-1.4-3.1-3.9-1.9-6 1.3-2.2 3.7-2.8 6-1.5zm-3.3 6.1c1.7.9 3.5.7 4.2-.7.7-1.3.1-3-1.7-4-1.3-.7-3.3-1-4.2.6-.8 1.8.3 3.3 1.7 4.1zm2.9-8.6c-.9-.5-1.7-.9-2.4-1.3l.7-1.2 1.5.8v-.1c-.8-.9-1-2.1-.5-3 .1-.2.2-.3.3-.4l1.3.7c-.1.1-.2.3-.3.4-.5 1-.2 2.1.7 2.8.2.1.4.3.6.4l4.1 2.3-.8 1.4-5.2-2.8zm8.5-6.1c.5-.3 1.2-.8 1.6-1.5.6-1 .3-1.8-.3-2.1-.7-.4-1.2-.2-2.2.6-1.3 1.1-2.4 1.3-3.3.8-1.2-.7-1.7-2.2-.8-3.9.4-.8 1-1.3 1.5-1.6l.8.9c-.4.2-.9.6-1.3 1.3-.5.8-.2 1.5.3 1.9.6.4 1.2.1 2.1-.7 1.2-1 2.3-1.3 3.4-.7 1.3.7 1.7 2.3.7 4.1-.5.8-1.1 1.5-1.7 1.8l-.8-.9zm1.9-8.4c1.9 1 3.3.3 4.1-1.1.6-1 .7-1.7.8-2.3l1.1.3c-.1.6-.3 1.6-.9 2.8-1.3 2.3-3.6 2.9-5.9 1.6-2.3-1.3-3.3-3.6-2.1-5.9 1.4-2.5 3.9-1.9 5.3-1.1.3.2.5.3.6.4l-3 5.3zm1.3-4.6c-.9-.5-2.4-.9-3.3.7-.8 1.4.2 2.7 1.1 3.4l2.2-4.1zm.7-3.6c-.8-.4-1.4-.8-2.1-1.1l.7-1.2 1.3.6c-.5-.8-.8-1.9-.1-3.2.6-1 1.6-1.5 2.7-1.3-.3-.5-.5-1-.5-1.4-.1-.6 0-1.3.4-2 .6-1 2.1-2.1 4.7-.7l4.5 2.5-.8 1.4-4.3-2.4c-1.5-.8-2.6-.8-3.3.3-.4.8-.2 1.7.3 2.3.2.2.4.4.6.5l4.7 2.6-.8 1.4-4.6-2.6c-1.2-.7-2.4-.6-3 .4-.5.9-.1 1.9.4 2.5.2.2.4.4.6.5l4.6 2.6-.8 1.4-5.2-3.1zm15.2-14.2l-1-.4c.4.8.4 1.9-.2 3-.9 1.5-2.4 1.7-3.5 1.1-1.8-1-1.9-3.2-.3-6.2l-.2-.1c-.6-.4-1.9-.8-2.7.7-.4.7-.6 1.6-.5 2.3l-1.1-.2c-.1-.9.2-1.9.7-2.9 1.3-2.3 3.2-2 4.7-1.1l2.8 1.6c.7.4 1.3.7 1.9.9l-.6 1.3zm-4-2c-.9 1.5-1.6 3.4-.1 4.2.9.5 1.7.1 2-.6.6-1 .3-2-.2-2.6-.1-.1-.3-.2-.4-.3l-1.3-.7zm.3-4.5c-.8-.4-1.4-.8-2.1-1.1l.7-1.2 1.3.6c-.5-.8-.7-2.1 0-3.3.6-1.1 2.1-2.3 4.7-.9l4.5 2.5-.8 1.4-4.4-2.5c-1.2-.7-2.5-.8-3.2.5-.5.9-.3 2 .4 2.6.1.2.4.3.6.5l4.6 2.6-.8 1.4-5.5-3.1zm1.6-12.7l2.2 1.2 1.1-2 1.1.6-1.1 2 4.1 2.3c.9.5 1.6.6 2.1-.2.2-.4.3-.7.4-.9l1.1.5c0 .3-.2.8-.5 1.3-.4.6-.9 1-1.4 1.2-.6.2-1.4-.1-2.3-.6l-4.1-2.3-.7 1.2-1.1-.6.7-1.2-1.8-1 .2-1.5zm.6-4.3l.8-1.4 4.7 2.7c-.3-.4-.4-1-.4-1.5s.1-1.1.4-1.6c.6-1 2.1-2.3 4.7-.8l4.5 2.5-.8 1.4-4.4-2.4c-1.2-.7-2.5-.8-3.2.5-.5.9-.3 2 .3 2.6.1.2.3.3.6.5l4.6 2.6-.8 1.4-11-6.5zm7.1-9.4c.5.2.7.8.4 1.4-.3.5-.8.6-1.3.4-.5-.3-.7-.8-.4-1.3.3-.7.8-.8 1.3-.5zm8.9 7l-7.6-4.3.8-1.4 7.6 4.3-.8 1.4zm4.8-9.3c0 .5-.2 1.4-.8 2.4-1.3 2.3-3.7 2.9-6 1.6-2.3-1.3-3.1-3.9-1.8-6.3.5-.8 1.1-1.4 1.5-1.7l.9.9c-.4.2-.8.6-1.3 1.4-1 1.7-.2 3.4 1.4 4.3 1.8 1 3.5.5 4.3-1 .4-.8.5-1.4.6-1.9l1.2.3zm-.3-2c.5-.3 1.2-.8 1.6-1.5.6-1 .3-1.8-.3-2.1-.7-.4-1.2-.2-2.2.6-1.3 1.1-2.4 1.3-3.3.8-1.2-.7-1.7-2.2-.8-3.9.4-.8 1-1.3 1.5-1.6l.8.9c-.4.2-.9.6-1.3 1.3-.5.8-.2 1.5.3 1.9.6.4 1.2.1 2.1-.7 1.2-1 2.3-1.3 3.4-.7 1.3.7 1.7 2.3.7 4.1-.5.8-1.1 1.5-1.7 1.8l-.8-.9zm9.2-13.2l-1-.4c.4.8.4 1.9-.2 3-.9 1.5-2.4 1.7-3.5 1.1-1.8-1-1.9-3.2-.3-6.2l-.2-.1c-.6-.4-1.9-.8-2.7.7-.4.7-.6 1.6-.5 2.3l-1.1-.2c-.1-.9.2-1.9.7-2.9 1.3-2.3 3.2-2 4.7-1.2l2.8 1.6c.7.4 1.3.7 1.9.9l-.6 1.4zm-4-2c-.9 1.5-1.6 3.4-.1 4.2.9.5 1.7.1 2.1-.6.6-1 .3-2-.2-2.6-.1-.1-.3-.2-.4-.3l-1.4-.7zm.3-4.5c-.8-.4-1.4-.8-2.1-1.1l.7-1.2 1.3.6c-.5-.8-.7-2.1 0-3.3.6-1.1 2.1-2.3 4.7-.9l4.5 2.5-.8 1.4-4.4-2.5c-1.2-.7-2.5-.8-3.2.5-.5.9-.3 2 .4 2.6.1.2.4.3.6.5l4.6 2.6-.8 1.4-5.5-3.1zm3-18.4l9.2 5.1c.7.4 1.5.8 2 1l-.7 1.2-1.4-.7c.6.9.7 2.2 0 3.4-1 1.8-3.4 2.4-5.7 1.1-2.5-1.4-3.2-3.8-2.2-5.7.7-1.2 1.6-1.6 2.4-1.6L921 255l.9-1.3zm5.9 5.1l-.6-.3c-1-.3-2.1.1-2.7 1.1-.8 1.4 0 3 1.7 3.9 1.5.9 3.2.8 4.1-.7.5-.9.4-2.1-.5-3-.2-.2-.3-.3-.6-.4l-1.4-.6zm-.5-11.5c.5.2.7.8.4 1.4-.3.5-.8.6-1.3.4-.5-.3-.7-.8-.4-1.3.3-.6.8-.7 1.3-.5zm8.9 7l-7.6-4.3.8-1.4 7.6 4.3-.8 1.4zm-3.5-6.7c-.8-.4-1.4-.8-2.1-1.1l.7-1.2 1.3.6c-.5-.8-.8-1.9-.1-3.2.6-1 1.6-1.5 2.7-1.3-.3-.5-.5-1-.5-1.4-.1-.6 0-1.3.4-2 .6-1 2.1-2.1 4.7-.7l4.5 2.5-.8 1.4-4.3-2.4c-1.5-.8-2.6-.8-3.3.3-.4.8-.2 1.7.3 2.3.2.2.4.4.6.5l4.7 2.6-.8 1.4-4.6-2.6c-1.2-.7-2.4-.6-3 .4-.5.9-.1 1.9.4 2.5.2.2.4.4.6.5l4.6 2.6-.8 1.4-5.2-3.1zm7.7-12.9c-1-.5-1.8-1-2.5-1.3l.7-1.2 1.3.7c-.6-1.1-.7-2.3 0-3.5 1-1.8 3.4-2.4 5.7-1.1 2.7 1.5 3.2 4 2.2 5.7-.6 1-1.5 1.6-2.5 1.7l4.1 2.3-.8 1.4-8.2-4.7zm2.8-.2l.6.3c1.1.3 2.2-.2 2.8-1.2.8-1.5.1-3-1.6-4-1.5-.9-3.3-.8-4.1.7-.5.9-.3 2.2.5 3 .1.1.3.3.5.4l1.3.8zm9.7-10.1l-1-.4c.4.8.4 1.9-.2 3-.9 1.5-2.4 1.7-3.5 1.1-1.8-1-1.9-3.2-.3-6.2l-.2-.1c-.6-.4-1.9-.8-2.7.7-.4.7-.6 1.6-.5 2.3l-1.1-.2c-.1-.9.2-1.9.7-2.9 1.3-2.3 3.2-2 4.7-1.2l2.8 1.6c.7.4 1.3.7 1.9.9l-.6 1.4zm-4-2c-.9 1.5-1.6 3.4-.1 4.2.9.5 1.7.1 2-.6.6-1 .3-2-.2-2.6-.1-.1-.3-.2-.4-.3l-1.3-.7zm8.7-6.9c0 .5-.2 1.4-.8 2.4-1.3 2.3-3.7 2.9-6 1.6-2.3-1.3-3.1-3.9-1.8-6.3.5-.8 1.1-1.4 1.5-1.7l.9.9c-.4.2-.8.6-1.3 1.4-1 1.7-.2 3.4 1.4 4.3 1.8 1 3.5.5 4.3-1 .4-.8.5-1.4.6-1.9l1.2.3zm-7.6-8.8l2.2 1.2 1.1-2 1.1.6-1.1 2 4.1 2.3c.9.5 1.6.6 2.1-.2.2-.4.3-.7.4-.9l1.1.5c0 .3-.2.8-.5 1.3-.4.6-.9 1-1.4 1.2-.6.2-1.4-.1-2.3-.6l-4.1-2.3-.7 1.2-1.1-.6.7-1.2-1.8-1 .2-1.5z"/>
  <path class="st6" d="M344.1 54.7V59h4.1v1h-4.1v4.3H343V60h-4.1v-1h4.1v-4.2h1.1zm225 553v4.2h4.1v1.1h-4.1v4.3H568V613h-4.1v-1h4.1v-4.2h1.1zm146 0v4.2h4.1v1.1h-4.1v4.3H714V613h-4.1v-1h4.1v-4.2h1.1zM279.8 106.8v1.2h-4.4v-1.2h4.4zm720 0v1.2h-4.4v-1.2h4.4zm-57.7-52.1V59h4.1v1h-4.1v4.3H941V60h-4.1v-1h4.1v-4.2h1.1z"/>
  <path d="M82.8 191.4h-4.3v-1.6H89v1.6h-4.3V204h-1.8v-12.6zm19.3 5.3c0 4.9-3 7.5-6.6 7.5-3.7 0-6.4-2.9-6.4-7.2 0-4.5 2.8-7.4 6.6-7.4 3.9 0 6.4 2.9 6.4 7.1zm-11 .3c0 3 1.6 5.7 4.5 5.7s4.5-2.7 4.5-5.9c0-2.8-1.5-5.8-4.5-5.8-3 .1-4.5 2.9-4.5 6zm25.5-.3c0 4.9-3 7.5-6.6 7.5-3.7 0-6.4-2.9-6.4-7.2 0-4.5 2.8-7.4 6.6-7.4 3.9 0 6.4 2.9 6.4 7.1zm-11 .3c0 3 1.6 5.7 4.5 5.7s4.5-2.7 4.5-5.9c0-2.8-1.5-5.8-4.5-5.8-3 .1-4.5 2.9-4.5 6zm13.3-7.2h1.8v12.6h6v1.5h-7.9v-14.1zm9.7 11.9c.8.5 2 .9 3.3.9 1.9 0 3-1 3-2.4 0-1.3-.8-2.1-2.7-2.8-2.3-.8-3.7-2-3.7-4 0-2.2 1.8-3.8 4.6-3.8 1.4 0 2.5.3 3.1.7l-.5 1.5c-.5-.3-1.4-.7-2.7-.7-1.9 0-2.7 1.2-2.7 2.1 0 1.3.9 2 2.8 2.7 2.4.9 3.6 2.1 3.6 4.2 0 2.2-1.6 4.1-5 4.1-1.4 0-2.9-.4-3.6-.9l.5-1.6zm-37.7 42.5c-.8.3-2.4.8-4.3.8-2.1 0-3.9-.5-5.3-1.9-1.2-1.2-2-3.1-2-5.3 0-4.2 2.9-7.3 7.7-7.3 1.6 0 2.9.4 3.5.7l-.4 1.5c-.8-.3-1.7-.6-3.1-.6-3.4 0-5.7 2.1-5.7 5.7s2.2 5.7 5.5 5.7c1.2 0 2-.2 2.4-.4v-4.2h-2.9v-1.5H91v6.8zm10.1-6h-5.5v5.1h6.1v1.5h-8v-14.2h7.6v1.5h-5.8v4.5h5.5v1.6zm3 6.6v-14.2h2l4.5 7.2c1 1.7 1.9 3.1 2.5 4.6-.2-1.9-.2-3.6-.2-5.8v-5.9h1.7v14.2h-1.8l-4.5-7.2c-1-1.6-1.9-3.2-2.6-4.7h-.1c.1 1.8.1 3.5.1 5.8v6H104zm21.2-6.6h-5.5v5.1h6.1v1.5h-8v-14.2h7.6v1.5h-5.8v4.5h5.5v1.6zm3-7.4c.9-.2 2.2-.3 3.5-.3 2 0 3.2.4 4.1 1.2.7.6 1.1 1.6 1.1 2.7 0 1.9-1.2 3.1-2.7 3.6v.1c1.1.4 1.7 1.4 2.1 2.9.5 2 .8 3.3 1.1 3.9h-1.9c-.2-.4-.5-1.6-.9-3.4-.4-2-1.2-2.7-2.8-2.8H130v6.1h-1.8v-14zm1.8 6.5h1.9c2 0 3.2-1.1 3.2-2.7 0-1.8-1.3-2.6-3.3-2.6-.9 0-1.5.1-1.8.2v5.1zm11.3-6.7v14.2h-1.8v-14.2h1.8zm13.1 13.7c-.7.3-2 .7-3.7.7-4 0-7-2.5-7-7.2 0-4.4 3-7.4 7.4-7.4 1.8 0 2.9.4 3.4.6l-.4 1.5c-.7-.3-1.7-.6-2.9-.6-3.3 0-5.5 2.1-5.5 5.8 0 3.5 2 5.7 5.4 5.7 1.1 0 2.2-.2 3-.6l.3 1.5zM87.5 279H82v5.1h6.1v1.5h-8v-14.2h7.6v1.5H82v4.5h5.5v1.6zm3-7.5h1.8v12.6h6v1.5h-7.9v-14.1zm17.2 7.5h-5.5v5.1h6.1v1.5h-8v-14.2h7.6v1.5h-5.8v4.5h5.5v1.6zm14.9.4c-.1-2-.2-4.3-.2-6.1h-.1c-.5 1.7-1.1 3.4-1.8 5.4l-2.5 6.9h-1.4l-2.3-6.7c-.7-2-1.2-3.8-1.6-5.5 0 1.8-.1 4.1-.3 6.3l-.4 6.1h-1.7l1-14.2h2.3l2.4 6.8c.6 1.7 1.1 3.3 1.4 4.8h.1c.4-1.4.9-3 1.5-4.8l2.5-6.8h2.3l.9 14.2H123l-.4-6.4zm12.3-.4h-5.5v5.1h6.1v1.5h-8v-14.2h7.6v1.5h-5.8v4.5h5.5v1.6zm3 6.6v-14.2h2l4.5 7.2c1 1.7 1.9 3.1 2.5 4.6-.2-1.9-.2-3.6-.2-5.8v-5.9h1.7v14.2h-1.8l-4.5-7.2c-1-1.6-1.9-3.2-2.6-4.7h-.1c.1 1.8.1 3.5.1 5.8v6h-1.6zm16.5-12.6h-4.3v-1.6h10.5v1.6h-4.3v12.6h-1.8V273zm7.4 10.4c.8.5 2 .9 3.3.9 1.9 0 3-1 3-2.4 0-1.3-.8-2.1-2.7-2.8-2.3-.8-3.7-2-3.7-4 0-2.2 1.8-3.8 4.6-3.8 1.4 0 2.5.3 3.1.7l-.5 1.5c-.5-.3-1.4-.7-2.7-.7-1.9 0-2.7 1.2-2.7 2.1 0 1.3.9 2 2.8 2.7 2.4.9 3.6 2.1 3.6 4.2 0 2.2-1.6 4.1-5 4.1-1.4 0-2.9-.4-3.6-.9l.5-1.6zm-69.7 36.8c-.1-2-.2-4.3-.2-6.1h-.1c-.5 1.7-1.1 3.4-1.8 5.4l-2.5 6.9h-1.4l-2.3-6.7c-.7-2-1.2-3.8-1.6-5.5 0 1.8-.1 4.1-.3 6.3l-.4 6.1h-1.7l1-14.2h2.3l2.4 6.8c.6 1.7 1.1 3.3 1.4 4.8h.1c.4-1.4.9-3 1.5-4.8l2.5-6.8h2.3l.9 14.2h-1.8l-.3-6.4zm7 1.8l-1.5 4.5h-1.9l4.8-14.2h2.2l4.8 14.2h-2L104 322h-4.9zm4.6-1.4l-1.4-4.1c-.3-.9-.5-1.8-.7-2.6-.2.8-.4 1.7-.7 2.6l-1.4 4.1h4.2zm7-6.7h-4.3v-1.6h10.5v1.6h-4.3v12.6h-1.8v-12.6zm15.1 5.9h-5.5v5.1h6.1v1.5h-8v-14.2h7.6v1.5h-5.8v4.5h5.5v1.6zm3-7.3c.9-.2 2.2-.3 3.5-.3 2 0 3.2.4 4.1 1.2.7.6 1.1 1.6 1.1 2.7 0 1.9-1.2 3.1-2.7 3.6v.1c1.1.4 1.7 1.4 2.1 2.9.5 2 .8 3.3 1.1 3.9h-1.9c-.2-.4-.5-1.6-.9-3.4-.4-2-1.2-2.7-2.8-2.8h-1.7v6.1h-1.8v-14zm1.8 6.4h1.9c2 0 3.2-1.1 3.2-2.7 0-1.8-1.3-2.6-3.3-2.6-.9 0-1.5.1-1.8.2v5.1zm11.3-6.6v14.2h-1.8v-14.2h1.8zm5.5 9.7l-1.5 4.5H144l4.8-14.2h2.2l4.8 14.2h-2l-1.5-4.5h-4.9zm4.6-1.4l-1.4-4.1c-.3-.9-.5-1.8-.7-2.6-.2.8-.4 1.7-.7 2.6l-1.4 4.1h4.2zm6-8.3h1.8v12.6h6v1.5H158v-14.1zm-65.8 47.8c0 4.9-3 7.5-6.6 7.5-3.7 0-6.4-2.9-6.4-7.2 0-4.5 2.8-7.4 6.6-7.4 3.9-.1 6.4 2.9 6.4 7.1zm-11 .2c0 3 1.6 5.7 4.5 5.7s4.5-2.7 4.5-5.9c0-2.8-1.5-5.8-4.5-5.8-3 .1-4.5 2.9-4.5 6zm13.4-7c.8-.2 2.1-.3 3.3-.3 1.8 0 3 .3 3.9 1 .7.5 1.2 1.4 1.2 2.5 0 1.4-.9 2.6-2.4 3.1 1.3.3 2.9 1.4 2.9 3.5 0 1.2-.5 2.1-1.2 2.8-1 .9-2.6 1.3-4.9 1.3-1.3 0-2.2-.1-2.8-.2v-13.7zm1.8 5.8h1.7c1.9 0 3.1-1 3.1-2.4 0-1.7-1.3-2.3-3.1-2.3-.8 0-1.3.1-1.6.1v4.6zm0 6.8c.4.1.9.1 1.5.1 1.9 0 3.6-.7 3.6-2.8 0-1.9-1.7-2.7-3.7-2.7h-1.5v5.4zm12.5-12.8h1.8v9.5c0 3.8-1.8 4.9-4.3 4.9-.7 0-1.5-.1-2-.3l.3-1.5c.4.1.9.3 1.5.3 1.6 0 2.6-.7 2.6-3.5v-9.4zm12.2 7.6h-5.5v5.1h6.1v1.5h-8v-14.2h7.6v1.5h-5.8v4.5h5.5v1.6zm12.9 6.1c-.7.3-2 .7-3.7.7-4 0-7-2.5-7-7.2 0-4.4 3-7.4 7.4-7.4 1.8 0 2.9.4 3.4.6l-.4 1.5c-.7-.3-1.7-.6-2.9-.6-3.3 0-5.5 2.1-5.5 5.8 0 3.5 2 5.7 5.4 5.7 1.1 0 2.2-.2 3-.6l.3 1.5zm5.5-12.1h-4.3v-1.6h10.5v1.6h-4.3v12.6h-1.8v-12.6zm7.4 10.4c.8.5 2 .9 3.3.9 1.9 0 3-1 3-2.4 0-1.3-.8-2.1-2.7-2.8-2.3-.8-3.7-2-3.7-4 0-2.2 1.8-3.8 4.6-3.8 1.4 0 2.5.3 3.1.7l-.5 1.5c-.5-.3-1.4-.7-2.7-.7-1.9 0-2.7 1.2-2.7 2.1 0 1.3.9 2 2.8 2.7 2.4.9 3.6 2.1 3.6 4.2 0 2.2-1.6 4.1-5 4.1-1.4 0-2.9-.4-3.6-.9l.5-1.6zm-64.5 38.6l-1.5 4.5H79l4.8-14.2H86l4.8 14.2h-2l-1.5-4.5h-4.9zm4.7-1.4l-1.4-4.1c-.3-.9-.5-1.8-.7-2.6-.2.8-.4 1.7-.7 2.6l-1.4 4.1h4.2zm5.9 5.8V394h2l4.5 7.2c1 1.7 1.9 3.1 2.5 4.6-.2-1.9-.2-3.6-.2-5.8v-6h1.7v14.2h-1.8l-4.5-7.2c-1-1.6-1.9-3.2-2.6-4.7h-.1c.1 1.8.1 3.5.1 5.8v6H93zm15.6-14.1v14.2h-1.8V394h1.8zm15.1 7.9c-.1-2-.2-4.3-.2-6.1h-.1c-.5 1.7-1.1 3.4-1.8 5.4l-2.5 6.9h-1.4l-2.3-6.7c-.7-2-1.2-3.8-1.6-5.5 0 1.8-.1 4.1-.3 6.3l-.4 6.1h-1.7l1-14.2h2.3l2.4 6.8c.6 1.7 1.1 3.3 1.4 4.8h.1c.4-1.4.9-3 1.5-4.8l2.5-6.8h2.3l.9 14.2H124l-.3-6.4zm7.1 1.8l-1.5 4.5h-1.9l4.8-14.2h2.2l4.8 14.2h-2l-1.5-4.5h-4.9zm4.6-1.4l-1.4-4.1c-.3-.9-.5-1.8-.7-2.6-.2.8-.4 1.7-.7 2.6l-1.4 4.1h4.2zm7-6.8h-4.3V394h10.5v1.6h-4.3v12.6h-1.8v-12.7zm9.6-1.5v14.2h-1.8V394h1.8zm15.3 6.9c0 4.9-3 7.5-6.6 7.5-3.7 0-6.4-2.9-6.4-7.2 0-4.5 2.8-7.4 6.6-7.4 3.9-.1 6.4 2.9 6.4 7.1zm-11 .2c0 3 1.6 5.7 4.5 5.7s4.5-2.7 4.5-5.9c0-2.8-1.5-5.8-4.5-5.8-3 .1-4.5 2.9-4.5 6zm13.3 7V394h2l4.5 7.2c1 1.7 1.9 3.1 2.5 4.6-.2-1.9-.2-3.6-.2-5.8v-6h1.7v14.2h-1.8l-4.5-7.2c-1-1.6-1.9-3.2-2.6-4.7h-.1c.1 1.8.1 3.5.1 5.8v6h-1.6zm13.6-2.2c.8.5 2 .9 3.3.9 1.9 0 3-1 3-2.4 0-1.3-.8-2.1-2.7-2.8-2.3-.8-3.7-2-3.7-4 0-2.2 1.8-3.8 4.6-3.8 1.4 0 2.5.3 3.1.7l-.5 1.5c-.5-.3-1.4-.7-2.7-.7-1.9 0-2.7 1.2-2.7 2.1 0 1.3.9 2 2.8 2.7 2.4.9 3.6 2.1 3.6 4.2 0 2.2-1.6 4.1-5 4.1-1.4 0-2.9-.4-3.6-.9l.5-1.6zM90 448.5c-.7.3-2 .7-3.7.7-4 0-7-2.5-7-7.2 0-4.4 3-7.4 7.4-7.4 1.8 0 2.9.4 3.4.6l-.4 1.5c-.7-.3-1.7-.6-2.9-.6-3.3 0-5.5 2.1-5.5 5.8 0 3.5 2 5.7 5.4 5.7 1.1 0 2.2-.2 3-.6l.3 1.5zm14-6.8c0 4.9-3 7.5-6.6 7.5-3.7 0-6.4-2.9-6.4-7.2 0-4.5 2.8-7.4 6.6-7.4 3.9 0 6.4 2.9 6.4 7.1zm-11 .3c0 3 1.6 5.7 4.5 5.7s4.5-2.7 4.5-5.9c0-2.8-1.5-5.8-4.5-5.8-3 .1-4.5 2.9-4.5 6zm13.3-7.2h1.8v12.6h6v1.5h-7.9v-14.1zm21.2 6.9c0 4.9-3 7.5-6.6 7.5-3.7 0-6.4-2.9-6.4-7.2 0-4.5 2.8-7.4 6.6-7.4 3.9 0 6.4 2.9 6.4 7.1zm-11 .3c0 3 1.6 5.7 4.5 5.7s4.5-2.7 4.5-5.9c0-2.8-1.5-5.8-4.5-5.8-2.9.1-4.5 2.9-4.5 6zm13.4-7c.9-.2 2.2-.3 3.5-.3 2 0 3.2.4 4.1 1.2.7.6 1.1 1.6 1.1 2.7 0 1.9-1.2 3.1-2.7 3.6v.1c1.1.4 1.7 1.4 2.1 2.9.5 2 .8 3.3 1.1 3.9h-1.9c-.2-.4-.5-1.6-.9-3.4-.4-2-1.2-2.7-2.8-2.8h-1.7v6.1H130v-14zm1.8 6.4h1.9c2 0 3.2-1.1 3.2-2.7 0-1.8-1.3-2.6-3.3-2.6-.9 0-1.5.1-1.8.2v5.1zm13.7 5.3c.8.5 2 .9 3.3.9 1.9 0 3-1 3-2.4 0-1.3-.8-2.1-2.7-2.8-2.3-.8-3.7-2-3.7-4 0-2.2 1.8-3.8 4.6-3.8 1.4 0 2.5.3 3.1.7l-.5 1.5c-.5-.3-1.4-.7-2.7-.7-1.9 0-2.7 1.2-2.7 2.1 0 1.3.9 2 2.8 2.7 2.4.9 3.6 2.1 3.6 4.2 0 2.2-1.6 4.1-5 4.1-1.4 0-2.9-.4-3.6-.9l.5-1.6zm20.5 1.8c-.7.3-2 .7-3.7.7-4 0-7-2.5-7-7.2 0-4.4 3-7.4 7.4-7.4 1.8 0 2.9.4 3.4.6l-.4 1.5c-.7-.3-1.7-.6-2.9-.6-3.3 0-5.5 2.1-5.5 5.8 0 3.5 2 5.7 5.4 5.7 1.1 0 2.2-.2 3-.6l.3 1.5zm4.1-13.7v5.9h6.8v-5.9h1.8V449h-1.8v-6.6H170v6.6h-1.8v-14.2h1.8zm19.2 7.5h-5.5v5.1h6.1v1.5h-8v-14.2h7.6v1.5h-5.8v4.5h5.5v1.6zm14.9.5c-.1-2-.2-4.3-.2-6.1h-.1c-.5 1.7-1.1 3.4-1.8 5.4l-2.5 6.9h-1.4l-2.3-6.7c-.7-2-1.2-3.8-1.6-5.5 0 1.8-.1 4.1-.3 6.3l-.4 6.1h-1.7l1-14.2h2.3l2.4 6.8c.6 1.7 1.1 3.3 1.4 4.8h.1c.4-1.4.9-3 1.5-4.8l2.5-6.8h2.3l.9 14.2h-1.8l-.3-6.4zm12.3-.5h-5.5v5.1h6.1v1.5h-8v-14.2h7.6v1.5h-5.8v4.5h5.5v1.6zm2.8 4.4c.8.5 2 .9 3.3.9 1.9 0 3-1 3-2.4 0-1.3-.8-2.1-2.7-2.8-2.3-.8-3.7-2-3.7-4 0-2.2 1.8-3.8 4.6-3.8 1.4 0 2.5.3 3.1.7l-.5 1.5c-.5-.3-1.4-.7-2.7-.7-1.9 0-2.7 1.2-2.7 2.1 0 1.3.9 2 2.8 2.7 2.4.9 3.6 2.1 3.6 4.2 0 2.2-1.6 4.1-5 4.1-1.4 0-2.9-.4-3.6-.9l.5-1.6zM90 499.3c-.7.3-2 .7-3.7.7-4 0-7-2.5-7-7.2 0-4.4 3-7.4 7.4-7.4 1.8 0 2.9.4 3.4.6l-.4 1.5c-.7-.3-1.7-.6-2.9-.6-3.3 0-5.5 2.1-5.5 5.8 0 3.5 2 5.7 5.4 5.7 1.1 0 2.2-.2 3-.6l.3 1.5zm14-6.7c0 4.9-3 7.5-6.6 7.5-3.7 0-6.4-2.9-6.4-7.2 0-4.5 2.8-7.4 6.6-7.4 3.9-.1 6.4 2.9 6.4 7.1zm-11 .2c0 3 1.6 5.7 4.5 5.7s4.5-2.7 4.5-5.9c0-2.8-1.5-5.8-4.5-5.8-3 .1-4.5 2.9-4.5 6zm25.3.8c-.1-2-.2-4.3-.2-6.1h-.1c-.5 1.7-1.1 3.4-1.8 5.4l-2.5 6.9h-1.4L110 493c-.7-2-1.2-3.8-1.6-5.5 0 1.8-.1 4.1-.3 6.3l-.4 6.1H106l1-14.2h2.3l2.4 6.8c.6 1.7 1.1 3.3 1.4 4.8h.1c.4-1.4.9-3 1.5-4.8l2.5-6.8h2.3l.9 14.2h-1.8l-.3-6.3zm4.9-7.8c.9-.1 2-.3 3.5-.3 1.8 0 3.1.4 4 1.2.8.7 1.2 1.7 1.2 3s-.4 2.3-1.1 3c-1 1-2.5 1.6-4.3 1.6-.5 0-1 0-1.5-.1v5.7h-1.8v-14.1zm1.8 6.8c.4.1.9.1 1.5.1 2.2 0 3.5-1.1 3.5-3s-1.3-2.8-3.3-2.8c-.8 0-1.4.1-1.7.1v5.6zm21.5 0c0 4.9-3 7.5-6.6 7.5-3.7 0-6.4-2.9-6.4-7.2 0-4.5 2.8-7.4 6.6-7.4 3.9-.1 6.4 2.9 6.4 7.1zm-11 .2c0 3 1.6 5.7 4.5 5.7s4.5-2.7 4.5-5.9c0-2.8-1.5-5.8-4.5-5.8-3 .1-4.5 2.9-4.5 6zm13.4 7v-14.2h2l4.5 7.2c1 1.7 1.9 3.1 2.5 4.6-.2-1.9-.2-3.6-.2-5.8v-5.9h1.7v14.2h-1.8l-4.5-7.2c-1-1.6-1.9-3.2-2.6-4.7h-.1c.1 1.8.1 3.5.1 5.8v6h-1.6zm21.1-6.6h-5.5v5.1h6.1v1.5h-8v-14.2h7.6v1.5h-5.8v4.5h5.5v1.6zm3 6.6v-14.2h2l4.5 7.2c1 1.7 1.9 3.1 2.5 4.6-.2-1.9-.2-3.6-.2-5.8v-5.9h1.7v14.2h-1.8l-4.5-7.2c-1-1.6-1.9-3.2-2.6-4.7h-.1c.1 1.8.1 3.5.1 5.8v6H173zm16.5-12.6h-4.3v-1.6h10.5v1.6h-4.3v12.6h-1.8v-12.6zm7.4 10.4c.8.5 2 .9 3.3.9 1.9 0 3-1 3-2.4 0-1.3-.8-2.1-2.7-2.8-2.3-.8-3.7-2-3.7-4 0-2.2 1.8-3.8 4.6-3.8 1.4 0 2.5.3 3.1.7l-.5 1.5c-.5-.3-1.4-.7-2.7-.7-1.9 0-2.7 1.2-2.7 2.1 0 1.3.9 2 2.8 2.7 2.4.9 3.6 2.1 3.6 4.2 0 2.2-1.6 4.1-5 4.1-1.4 0-2.9-.4-3.6-.9l.5-1.6zM82 598.1v8.4c0 3.2 1.4 4.5 3.3 4.5 2.1 0 3.4-1.4 3.4-4.5v-8.4h1.8v8.3c0 4.3-2.3 6.1-5.4 6.1-2.9 0-5.1-1.7-5.1-6v-8.3h2zm14.4 1.6h-4.3v-1.6h10.5v1.6h-4.3v12.6h-1.8v-12.6zm9.6-1.6v14.2h-1.8v-14.2h1.8zm3.2 0h1.8v12.6h6v1.5h-7.9v-14.1zm11.7 0v14.2h-1.8v-14.2h1.8zm5.9 1.6h-4.3v-1.6H133v1.6h-4.3v12.6h-1.8v-12.6zm9.6-1.6v14.2h-1.8v-14.2h1.8zm10.5 7.6h-5.5v5.1h6.1v1.5h-8v-14.2h7.6v1.5h-5.8v4.5h5.5v1.6zm2.7 4.4c.8.5 2 .9 3.3.9 1.9 0 3-1 3-2.4 0-1.3-.8-2.1-2.7-2.8-2.3-.8-3.7-2-3.7-4 0-2.2 1.8-3.8 4.6-3.8 1.4 0 2.5.3 3.1.7l-.5 1.5c-.5-.3-1.4-.7-2.7-.7-1.9 0-2.7 1.2-2.7 2.1 0 1.3.9 2 2.8 2.7 2.4.9 3.6 2.1 3.6 4.2 0 2.2-1.6 4.1-5 4.1-1.4 0-2.9-.4-3.6-.9l.5-1.6zm-69.7-40.9c.8.5 2 .9 3.3.9 1.9 0 3-1 3-2.4 0-1.3-.8-2.1-2.7-2.8-2.3-.8-3.7-2-3.7-4 0-2.2 1.8-3.8 4.6-3.8 1.4 0 2.5.3 3.1.7l-.5 1.5c-.5-.3-1.4-.7-2.7-.7-1.9 0-2.7 1.2-2.7 2.1 0 1.3.9 2 2.8 2.7 2.4.9 3.6 2.1 3.6 4.2 0 2.2-1.6 4.1-5 4.1-1.4 0-2.9-.4-3.6-.9l.5-1.6zm20.5 1.8c-.7.3-2 .7-3.7.7-4 0-7-2.5-7-7.2 0-4.4 3-7.4 7.4-7.4 1.8 0 2.9.4 3.4.6l-.4 1.5c-.7-.3-1.7-.6-2.9-.6-3.3 0-5.5 2.1-5.5 5.8 0 3.5 2 5.7 5.4 5.7 1.1 0 2.2-.2 3-.6l.3 1.5zm13.9-6.8c0 4.9-3 7.5-6.6 7.5-3.7 0-6.4-2.9-6.4-7.2 0-4.5 2.8-7.4 6.6-7.4 3.9 0 6.4 2.9 6.4 7.1zm-11 .3c0 3 1.6 5.7 4.5 5.7s4.5-2.7 4.5-5.9c0-2.8-1.5-5.8-4.5-5.8-3 .1-4.5 2.9-4.5 6zm13.4-7c.9-.1 2-.3 3.5-.3 1.8 0 3.1.4 4 1.2.8.7 1.2 1.7 1.2 3s-.4 2.3-1.1 3c-1 1-2.5 1.6-4.3 1.6-.5 0-1 0-1.5-.1v5.7h-1.8v-14.1zm1.8 6.8c.4.1.9.1 1.5.1 2.2 0 3.5-1.1 3.5-3s-1.3-2.8-3.3-2.8c-.8 0-1.4.1-1.7.1v5.6zm16.7.5h-5.5v5.1h6.1v1.5h-8v-14.2h7.6v1.5h-5.8v4.5h5.5v1.6zm2.7 4.4c.8.5 2 .9 3.3.9 1.9 0 3-1 3-2.4 0-1.3-.8-2.1-2.7-2.8-2.3-.8-3.7-2-3.7-4 0-2.2 1.8-3.8 4.6-3.8 1.4 0 2.5.3 3.1.7l-.5 1.5c-.5-.3-1.4-.7-2.7-.7-1.9 0-2.7 1.2-2.7 2.1 0 1.3.9 2 2.8 2.7 2.4.9 3.6 2.1 3.6 4.2 0 2.2-1.6 4.1-5 4.1-1.4 0-2.9-.4-3.6-.9l.5-1.6z"/>
  <g class="st7">
    <path class="st8" d="M338.6 95.5h607.8L642.5 621.9z"/>
    <path d="M943.8 97L642.5 618.9 341.2 97h602.6m5.2-3H336l306.5 530.9L949 94z"/>
  </g>
  <path class="st9" d="M591 43H337"/>
  <path class="st10" d="M1040 626V216"/>
  <path class="st9" d="M947 43H693"/>
  <path d="M411 314.8c0 1 .2 2.4.9 3.6 1 1.8 2.6 2.3 3.9 1.5 1.3-.7 1.6-1.9 1.2-4.1-.5-2.6-.1-4.6 1.8-5.7 2.1-1.2 4.6-.4 6.1 2.2.8 1.4 1 2.5 1.1 3.3l-1.7.3c0-.6-.1-1.7-.8-2.9-1.1-1.8-2.5-1.9-3.5-1.4-1.3.7-1.4 1.9-1 4.2.4 2.8 0 4.6-2 5.7-2.1 1.2-4.7.7-6.6-2.5-.7-1.3-1.2-2.9-1.1-3.9l1.7-.3zm16.9 3.6c.6.8 1.4 1.8 2.2 3.2 1 1.7 1.3 3.2 1.1 4.4-.2 1.1-.9 2.1-2.1 2.8-1.2.7-2.4.9-3.5.6-1.5-.4-2.9-1.6-3.8-3.2-.3-.5-.6-1-.7-1.5l-5.4 3.1-1-1.7 13.2-7.7zm-5.5 5.5c.1.4.4.9.7 1.5 1.2 2.1 3 2.8 4.8 1.7 1.8-1 1.9-2.8.8-4.7-.4-.8-.8-1.3-1.1-1.5l-5.2 3zm8.6 16l-3-5.2-4.8 2.8 3.3 5.8-1.4.8-4.3-7.5 13.4-7.7 4.2 7.2-1.5.8-3.2-5.5-4.2 2.4 3 5.2-1.5.9zm1.2 15.6c-.7-.5-1.7-1.5-2.7-3.2-2.2-3.8-1.4-8 3-10.5 4.2-2.4 8.7-1.2 11.1 2.9 1 1.7 1.2 2.9 1.2 3.5l-1.7.4c-.1-.8-.4-1.9-1-3-1.8-3.1-5-4.1-8.5-2-3.3 1.9-4.3 5-2.4 8.3.6 1.1 1.4 2 2.2 2.5l-1.2 1.1zm15.2-3.6l-13.4 7.7-1-1.7 13.4-7.7 1 1.7zm1.8 3l4.2 7.2-1.5.8-3.2-5.5-4.4 2.6 2.9 5.1-1.4.8-2.9-5.1-6.1 3.5-1-1.7 13.4-7.7zm6.6 11.4l-13.4 7.7-1-1.7 13.4-7.7 1 1.7zm-5.8 19.9c-.7-.5-1.7-1.5-2.7-3.2-2.2-3.8-1.4-8 3-10.5 4.2-2.4 8.7-1.2 11.1 2.9 1 1.7 1.2 2.9 1.2 3.5l-1.7.4c-.1-.8-.4-1.9-1-3-1.8-3.1-5-4.1-8.5-2-3.3 1.9-4.3 5-2.4 8.3.6 1.1 1.4 2 2.2 2.5l-1.2 1.1zm15.2-3.6l-13.4 7.7-1-1.7 13.4-7.7 1 1.7zm1.7 6.4l-2.4-4.1 1.5-.8 5.7 9.9-1.5.8-2.4-4.1-11.9 6.9-1-1.7 12-6.9zm-5.6 17.8l5.7-3.3 5.3-8.7 1.1 2-2.6 4c-.7 1.1-1.3 2-2 2.9 1.1-.1 2.2-.2 3.5-.2l4.8-.2 1.1 2-10.3-.1-5.7 3.3-.9-1.7z"/>
  <path class="st9" d="M405 294L289.2 94M596 625.4L478 421"/>
  <path d="M808.3 408.4l-2.9 5.2 4.9 2.7 3.3-5.8 1.5.8-4.3 7.6-13.5-7.6 4.1-7.3 1.5.8-3.1 5.5 4.3 2.4 2.9-5.2 1.3.9zm12.1-6.7h-3.9c-1.5.1-2.5.1-3.5.1.6.8 1.1 1.6 1.9 3l2 3.3-1.1 2-4.5-8-8.9.2 1.1-2h7.2v-.1c-.6-.8-1-1.5-1.6-2.5l-2.1-3.6 1.1-2 4.3 7.8 9.3-.3-1.3 2.1zm-11-11.5c.3-.9.8-2.1 1.6-3.5 1-1.7 2.1-2.8 3.2-3.1 1.1-.4 2.3-.3 3.5.4 1.2.7 2 1.6 2.3 2.7.5 1.5.1 3.3-.8 5-.3.5-.6 1-.9 1.3l5.4 3-1 1.7-13.3-7.5zm7.5 1.9c.3-.3.6-.8.9-1.4 1.2-2.1.9-4-1-5-1.8-1-3.3-.2-4.4 1.7-.4.8-.7 1.4-.8 1.7l5.3 3zm-1.7-12.6l1-1.7 12 6.8 3.2-5.8 1.5.8-4.2 7.5-13.5-7.6zm6.3-11.2l13.5 7.6-1 1.7-13.5-7.6 1-1.7zm20-5.2c0 .8-.4 2.3-1.4 3.9-2.1 3.8-6.1 5.3-10.6 2.8-4.2-2.4-5.5-6.8-3.1-11 .9-1.7 1.9-2.5 2.4-2.9l1.2 1.2c-.7.5-1.5 1.3-2.1 2.4-1.8 3.2-.9 6.4 2.6 8.4 3.3 1.9 6.5 1.1 8.3-2.1.6-1.1 1-2.3 1-3.2l1.7.5zm-10.8-11.2l13.5 7.6-1 1.7-13.5-7.6 1-1.7zm4.6-4.8l-2.3 4.1-1.5-.8 5.6-10 1.5.8-2.3 4.1 12 6.7-1 1.8-12-6.7zm16.2-.6l-13.5-7.6 1.1-1.9 9.2-.5c2.1-.1 4-.1 5.7 0v-.1c-1.9-.9-3.6-1.7-5.7-2.9l-5.6-3.2.9-1.6 13.5 7.6-1 1.8-9.2.4c-2 .1-4.1.1-5.9 0v.1c1.8.9 3.4 1.7 5.6 3l5.8 3.2-.9 1.7zm4.9-23.7l-2.9 5.2 4.9 2.7 3.3-5.8 1.5.8-4.3 7.6-13.5-7.6 4.1-7.3 1.5.8-3.1 5.5 4.3 2.4 2.9-5.2 1.3.9zm5.7-.3c.9-.5 2-1.4 2.6-2.6 1-1.8.6-3.3-.7-4.1-1.3-.7-2.4-.4-4.1 1-2 1.8-3.9 2.5-5.8 1.4-2.1-1.2-2.7-3.8-1.2-6.4.8-1.4 1.7-2.2 2.3-2.6l1.1 1.3c-.5.3-1.4 1-2.1 2.2-1 1.8-.3 3.2.6 3.7 1.3.7 2.3.2 4.1-1.2 2.2-1.8 3.9-2.3 5.9-1.2 2.1 1.2 3 3.7 1.2 6.9-.7 1.3-1.9 2.5-2.8 3l-1.1-1.4zm5.6-9.8c.9-.5 2-1.4 2.6-2.6 1-1.8.6-3.3-.7-4.1-1.3-.7-2.4-.4-4.1 1-2 1.8-3.9 2.5-5.8 1.4-2.1-1.2-2.7-3.8-1.2-6.4.8-1.4 1.7-2.2 2.3-2.6l1.1 1.3c-.5.3-1.4 1-2.1 2.2-1 1.8-.3 3.2.6 3.7 1.3.7 2.3.2 4.1-1.2 2.2-1.8 3.9-2.3 5.9-1.2 2.1 1.2 3 3.7 1.2 6.9-.7 1.3-1.9 2.5-2.8 3l-1.1-1.4z"/>
  <path class="st9" d="M792 438L685.3 627.2m300.6-535L877 286"/>
  <path d="M555.8 235.2h7v16.3h.1c.8-1.3 2-2.4 3.4-3.1 1.3-.8 3-1.2 4.7-1.2 4.7 0 9.5 3.1 9.5 11.8v16.1h-6.9v-15.3c0-4-1.5-7-5.3-7-2.7 0-4.6 1.8-5.3 3.9-.2.6-.3 1.3-.3 2.1v16.3h-7v-39.9zm47.4 39.9l-.4-3h-.2c-1.7 2.1-4.5 3.6-8.1 3.6-5.5 0-8.6-4-8.6-8.1 0-6.9 6.1-10.4 16.2-10.3v-.4c0-1.8-.7-4.8-5.6-4.8-2.7 0-5.5.8-7.3 2l-1.3-4.5c2-1.2 5.6-2.4 9.9-2.4 8.8 0 11.3 5.6 11.3 11.5v9.9c0 2.5.1 4.9.4 6.6h-6.3zm-.9-13.4c-4.9-.1-9.5 1-9.5 5.1 0 2.7 1.7 3.9 3.9 3.9 2.7 0 4.8-1.8 5.4-3.8.2-.5.2-1.1.2-1.5v-3.7zm21.4-21.6c0 2.1-1.5 3.7-3.9 3.7-2.3 0-3.8-1.6-3.8-3.7s1.6-3.8 3.9-3.8c2.3.1 3.7 1.7 3.8 3.8zm-7.4 35v-27.3h7v27.3h-7zm22.3-35.1v7.8h6.6v5.2h-6.6v12c0 3.3.9 5 3.5 5 1.2 0 2.1-.2 2.7-.3l.1 5.3c-1 .4-2.8.7-5 .7-2.5 0-4.7-.8-5.9-2.2-1.5-1.6-2.1-4-2.1-7.6v-12.8H628v-5.2h3.9v-6.2l6.7-1.7zm19.1.1c0 2.1-1.5 3.7-3.9 3.7-2.3 0-3.8-1.6-3.8-3.7s1.6-3.8 3.9-3.8c2.3.1 3.8 1.7 3.8 3.8zm-7.3 35v-27.3h7v27.3h-7zm34.4-.9c-1.5.7-4.3 1.4-7.7 1.4-8.5 0-14.1-5.4-14.1-13.9 0-8.2 5.6-14.6 15.2-14.6 2.5 0 5.1.6 6.7 1.3l-1.2 5.2c-1.1-.5-2.7-1.1-5.2-1.1-5.3 0-8.4 3.9-8.4 8.9 0 5.6 3.6 8.8 8.4 8.8 2.4 0 4.1-.5 5.4-1.1l.9 5.1zm4.8-5.5c1.6 1 4.5 2 7 2 3 0 4.4-1.2 4.4-3 0-1.9-1.1-2.8-4.5-4-5.3-1.9-7.6-4.8-7.5-8 0-4.8 4-8.6 10.3-8.6 3 0 5.7.8 7.2 1.6l-1.3 4.9c-1.2-.7-3.4-1.6-5.8-1.6-2.5 0-3.8 1.2-3.8 2.9s1.3 2.6 4.8 3.8c4.9 1.8 7.2 4.3 7.3 8.4 0 4.9-3.9 8.5-11.1 8.5-3.3 0-6.3-.8-8.3-1.9l1.3-5zm23.4 0c1.6 1 4.5 2 7 2 3 0 4.4-1.2 4.4-3 0-1.9-1.1-2.8-4.5-4-5.3-1.9-7.6-4.8-7.5-8 0-4.8 4-8.6 10.3-8.6 3 0 5.7.8 7.2 1.6l-1.3 4.9c-1.2-.7-3.4-1.6-5.8-1.6-2.5 0-3.8 1.2-3.8 2.9s1.3 2.6 4.8 3.8c4.9 1.8 7.2 4.3 7.3 8.4 0 4.9-3.9 8.5-11.1 8.5-3.3 0-6.3-.8-8.3-1.9l1.3-5zm-158 41.2c.1-.9.1-2.3.1-3.5v-16.6h2.5v8.6h.1c.9-1.5 2.5-2.5 4.7-2.5 3.4 0 5.8 2.8 5.8 7 0 4.9-3.1 7.3-6.2 7.3-2 0-3.6-.8-4.6-2.6h-.1l-.1 2.3H555zm2.5-5.5c0 .3.1.6.1.9.5 1.7 1.9 2.9 3.7 2.9 2.6 0 4.2-2.1 4.2-5.3 0-2.8-1.4-5.1-4.1-5.1-1.7 0-3.3 1.2-3.8 3.1-.1.3-.1.6-.1 1v2.5zm21.3 5.5l-.2-1.7h-.1c-.8 1.1-2.2 2-4.2 2-2.8 0-4.2-2-4.2-3.9 0-3.3 2.9-5.1 8.2-5.1v-.3c0-1.1-.3-3.2-3.1-3.2-1.3 0-2.6.4-3.6 1l-.6-1.6c1.1-.7 2.8-1.2 4.5-1.2 4.2 0 5.2 2.9 5.2 5.6v5.1c0 1.2.1 2.4.2 3.3h-2.1zm-.4-7c-2.7-.1-5.8.4-5.8 3.1 0 1.6 1.1 2.4 2.4 2.4 1.8 0 2.9-1.1 3.3-2.3.1-.3.1-.5.1-.8v-2.4zm6.1 4.5c.7.5 2 1 3.3 1 1.8 0 2.7-.9 2.7-2 0-1.2-.7-1.8-2.6-2.5-2.5-.9-3.6-2.2-3.6-3.9 0-2.2 1.8-4 4.7-4 1.4 0 2.6.4 3.4.9l-.6 1.8c-.5-.3-1.5-.8-2.8-.8-1.5 0-2.3.9-2.3 1.9 0 1.1.8 1.6 2.6 2.3 2.4.9 3.6 2.1 3.6 4.1 0 2.4-1.9 4.1-5.1 4.1-1.5 0-2.9-.4-3.9-.9l.6-2zm13-3.9c.1 3.4 2.2 4.8 4.7 4.8 1.8 0 2.9-.3 3.8-.7l.4 1.8c-.9.4-2.4.9-4.6.9-4.2 0-6.7-2.8-6.7-6.9 0-4.1 2.4-7.4 6.4-7.4 4.5 0 5.7 3.9 5.7 6.5 0 .5-.1.9-.1 1.2h-9.6zm7.3-1.8c0-1.6-.7-4.1-3.5-4.1-2.5 0-3.6 2.3-3.8 4.1h7.3zm17.4-11.9v16.6c0 1.2 0 2.6.1 3.5H620l-.1-2.4h-.1c-.8 1.5-2.4 2.7-4.7 2.7-3.3 0-5.9-2.8-5.9-7 0-4.6 2.8-7.4 6.2-7.4 2.1 0 3.5 1 4.1 2.1h.1v-8.2h2.6zm-2.5 12c0-.3 0-.7-.1-1-.4-1.6-1.7-2.9-3.6-2.9-2.6 0-4.1 2.3-4.1 5.3 0 2.8 1.4 5.1 4.1 5.1 1.7 0 3.2-1.1 3.7-3 .1-.3.1-.7.1-1.1v-2.4zm25 1.2c0 5.1-3.5 7.3-6.8 7.3-3.7 0-6.6-2.7-6.6-7.1 0-4.6 3-7.3 6.8-7.3 4 0 6.6 2.9 6.6 7.1zm-10.9.1c0 3 1.7 5.3 4.2 5.3 2.4 0 4.2-2.2 4.2-5.3 0-2.3-1.2-5.3-4.1-5.3-3 0-4.3 2.7-4.3 5.3zm14.1-3.2c0-1.4 0-2.6-.1-3.7h2.2l.1 2.3h.1c.7-1.3 2.3-2.6 4.5-2.6 1.9 0 4.8 1.1 4.8 5.8v8.2H657V302c0-2.2-.8-4.1-3.2-4.1-1.6 0-2.9 1.2-3.3 2.6-.1.3-.2.7-.2 1.2v8.2h-2.5v-10zm24.3-9.1v19.1h-2.5v-19.1h2.5zm7.9 2.1h-5.8v-2.1h14.1v2.1h-5.8v17h-2.5v-17zm23.1 16.4c-.9.5-2.7.9-5 .9-5.4 0-9.4-3.4-9.4-9.7 0-6 4.1-10 10-10 2.4 0 3.9.5 4.5.9l-.6 2c-.9-.5-2.3-.8-3.9-.8-4.5 0-7.5 2.9-7.5 7.9 0 4.7 2.7 7.7 7.3 7.7 1.5 0 3-.3 4-.8l.6 1.9zm2.7-2.4c1.1.7 2.7 1.2 4.4 1.2 2.5 0 4-1.3 4-3.3 0-1.8-1-2.8-3.6-3.8-3.1-1.1-5-2.7-5-5.4 0-3 2.5-5.2 6.2-5.2 2 0 3.4.5 4.2.9l-.7 2c-.6-.3-1.9-.9-3.6-.9-2.6 0-3.6 1.6-3.6 2.9 0 1.8 1.2 2.7 3.8 3.7 3.2 1.2 4.9 2.8 4.9 5.6 0 2.9-2.2 5.5-6.7 5.5-1.8 0-3.9-.5-4.9-1.2l.6-2zm14 0c1.1.7 2.7 1.2 4.4 1.2 2.5 0 4-1.3 4-3.3 0-1.8-1-2.8-3.6-3.8-3.1-1.1-5-2.7-5-5.4 0-3 2.5-5.2 6.2-5.2 2 0 3.4.5 4.2.9l-.7 2c-.6-.3-1.9-.9-3.6-.9-2.6 0-3.6 1.6-3.6 2.9 0 1.8 1.2 2.7 3.8 3.7 3.2 1.2 4.9 2.8 4.9 5.6 0 2.9-2.2 5.5-6.7 5.5-1.8 0-3.9-.5-4.9-1.2l.6-2z"/>
  <path class="st0 st1" d="M60 626V94"/>
</svg>
